<svg width="40" height="40" viewBox="0 0 40 40" fill="none" xmlns="http://www.w3.org/2000/svg">
<path d="M37.645 0L34.4318 35.9958L19.9884 40L5.58478 36.0015L2.375 0H37.645Z" fill="#264DE4"/>
<path d="M20.0098 36.9393L31.6807 33.7037L34.4266 2.9436H20.0098V36.9393Z" fill="#2965F1"/>
<path d="M20.01 16.2961H9.7334L10.1291 20.7115H20.01V16.2961Z" fill="#EBEBEB"/>
<path d="M20.0103 7.35913H19.995H8.93848L9.33986 11.7746H20.0103V7.35913Z" fill="#EBEBEB"/>
<path d="M10.3262 22.9192L10.9448 29.852L19.9895 32.3629L20.0098 32.3573V27.7634L19.9904 27.7685L15.0729 26.4407L14.7586 22.9192H12.3691H10.3262Z" fill="#EBEBEB"/>
<path d="M25.4322 20.7115L24.9197 26.4379L19.9951 27.7671V32.3608L29.047 29.8521L29.1134 29.1061L30.151 17.4817L30.2587 16.2961L31.0558 7.35913H19.9951V11.7746H26.2169L25.8151 16.2961H19.9951V20.7115H25.4322Z" fill="white"/>
</svg>
