<svg width="43" height="7" viewBox="0 0 43 7" fill="none" xmlns="http://www.w3.org/2000/svg">
<path fill-rule="evenodd" clip-rule="evenodd" d="M12.1131 4.97454V5.95435C11.8339 6.17017 11.1592 6.41786 10.4158 6.41786C9.27627 6.41786 8.18258 5.65519 8.18258 4.32709C8.18258 3.03186 9.29287 2.20445 10.3995 2.20445C11.0928 2.20445 11.456 2.43454 11.7024 2.43454C11.8339 2.43454 11.9165 2.28613 11.9325 2.23699H12.0308C12.0308 2.6995 12.0802 3.24767 12.1297 3.5299L12.0148 3.5465C11.7847 2.81604 11.0267 2.46742 10.449 2.48369C9.50769 2.50029 8.99571 3.33068 8.99571 4.26069C8.99571 5.27303 9.55716 6.1207 10.4822 6.1207C10.8122 6.1207 11.2581 6.03703 11.4069 5.85474V4.97421C11.4069 4.47684 11.1423 4.36029 10.944 4.36029V4.24442H12.5896V4.36029C12.3927 4.36063 12.1131 4.47717 12.1131 4.97454ZM6.9584 3.51363V6.43413H6.79537L3.98311 3.03186C3.99938 3.08133 4.01598 3.16467 4.01598 3.29781V5.35637C4.01598 6.07089 4.18166 6.26944 4.5449 6.26944V6.38499H3.1381V6.26944C3.51993 6.26944 3.68595 6.07089 3.68595 5.35637V2.88245C3.68595 2.53382 3.38712 2.3522 3.0385 2.3522V2.23699H4.2474L6.64795 5.09075C6.63201 4.97388 6.63201 4.94101 6.63201 4.84173V3.5133C6.63201 3.01526 6.63201 2.3522 6.11837 2.3522V2.23699H7.44913V2.3522C6.94246 2.35253 6.9584 3.01526 6.9584 3.51363ZM1.81365 2.94918V5.57252C1.81365 5.80527 1.76418 6.26978 2.2755 6.26978V6.38532H0.641269V6.26978C1.15325 6.26978 1.10411 5.8056 1.10411 5.57252V2.94918C1.10411 2.45114 0.82322 2.35253 0.625 2.35253V2.23732H2.30837V2.35253C2.09421 2.35253 1.81365 2.45114 1.81365 2.94918ZM18.5172 2.21275C18.5504 2.21275 18.5172 2.16361 18.5172 2.14734C18.4508 2.04906 18.4013 1.86844 18.3851 1.86844C18.3356 1.85151 18.3021 1.86844 18.2363 1.83491C18.2031 1.8017 18.1042 1.7519 18.0706 1.73496C18.0544 1.73496 18.0046 1.71803 17.9385 1.70176H17.8562C17.8724 1.75157 17.9222 1.8017 17.9385 1.83491C17.9385 1.85151 17.9385 1.90164 17.9551 1.93418C17.988 1.93418 18.0381 1.95078 18.0706 1.96705C18.0869 1.96705 18.1865 1.98332 18.2194 2.01619C18.2526 2.01619 18.3681 2.14734 18.3851 2.16361C18.4342 2.19648 18.484 2.22902 18.5172 2.21275ZM23.238 4.17104C23.2062 4.14061 23.1644 4.1228 23.1204 4.1209C23.1204 4.07143 23.1035 4.00503 23.1204 3.93895C23.1543 3.93895 23.221 3.95555 23.221 3.93895C23.221 3.83968 23.2041 3.74073 23.1878 3.69126C23.1439 3.67208 23.0989 3.65556 23.053 3.64179C23.0521 3.5958 23.0407 3.55062 23.0198 3.50964C23.0696 3.49337 23.1035 3.49337 23.1374 3.49337C23.1374 3.49337 23.1035 3.34396 23.0869 3.27723C23.053 3.26096 23.0032 3.26096 22.9694 3.26096C22.9524 3.23074 22.9355 3.20086 22.9189 3.15404C22.9527 3.13744 22.9863 3.13744 23.0202 3.12051C22.9983 3.06076 22.97 3.00354 22.9358 2.94985H22.8203C22.8033 2.91499 22.7871 2.88245 22.7871 2.84991C22.8033 2.83397 22.8362 2.81803 22.8531 2.80143C22.8351 2.75286 22.807 2.70863 22.7708 2.67161C22.7376 2.67161 22.7047 2.68788 22.6715 2.67161C22.6553 2.67161 22.6055 2.6062 22.6224 2.6062C22.6387 2.57333 22.6715 2.55706 22.6878 2.54079C22.6387 2.47538 22.6224 2.42591 22.5722 2.39337C22.5397 2.39337 22.5062 2.39337 22.4736 2.40964C22.4736 2.40964 22.4404 2.3605 22.4238 2.34423C22.3747 2.34423 22.4577 2.26222 22.4577 2.26222C22.4071 2.19826 22.3518 2.13811 22.2924 2.08226C22.2591 2.08226 22.2263 2.11514 22.21 2.11514C22.21 2.11514 22.1439 2.06599 22.1439 2.04939C22.1439 2.01652 22.21 2.00025 22.21 2.00025C22.21 2.00025 22.0938 1.86877 22.0121 1.81863C21.9789 1.83524 21.9623 1.83524 21.9291 1.83524C21.88 1.78543 21.8136 1.75223 21.8136 1.75223C21.8136 1.75223 21.8634 1.7187 21.8634 1.70243C21.7804 1.65262 21.7478 1.61909 21.6818 1.56895C21.6157 1.53575 21.5825 1.48594 21.5496 1.43647C21.4327 1.25485 21.2823 0.990231 20.9174 0.940759C20.9174 0.940759 21.0004 1.05697 21.0502 1.13931C21.0502 1.15591 21.0502 1.15591 20.9838 1.15591H20.8676C20.8344 1.10644 20.8178 1.08951 20.8012 1.05697C20.768 0.990563 20.7517 0.974294 20.7182 0.940759C20.6525 0.891288 20.3221 1.07324 20.0611 1.13931C20.1279 1.22199 20.1893 1.27146 20.2032 1.30466C20.2723 1.387 20.3882 1.53608 20.4705 1.65262C20.4875 1.63569 20.5037 1.61909 20.5369 1.60282C20.7514 1.56929 20.7514 1.51948 20.7514 1.51948C20.7514 1.51948 20.5864 1.38733 20.7019 1.38733C20.7019 1.38733 20.7846 1.40427 20.8175 1.37073C20.9005 1.35446 21.0001 1.33753 21.0499 1.37073C21.116 1.4202 21.1492 1.48628 21.1987 1.53641C21.1651 1.53641 21.1323 1.51981 21.0991 1.51981C20.9998 1.50354 20.9002 1.51981 20.8172 1.53641C20.8172 1.53641 20.9496 1.65329 20.9832 1.70309C20.9496 1.68649 20.8504 1.70309 20.8504 1.70309C20.8009 1.71936 20.7348 1.73629 20.7179 1.73629C20.6684 1.75289 20.6189 1.73629 20.5861 1.75289C20.6521 1.7861 20.9496 1.90264 21.0987 1.90264C21.2315 1.90264 21.3145 1.88604 21.4317 1.8359C21.4487 1.8193 21.4822 1.8027 21.4991 1.8193C21.5652 1.8359 21.5978 1.8525 21.6313 1.88571C22.0599 2.14834 22.5384 2.77022 22.6865 3.10424C22.8349 3.41103 22.9172 3.75833 22.9172 4.0887C22.9342 4.53926 22.7857 4.96757 22.4886 5.34774C22.3239 5.56356 22.0108 5.74916 21.6804 5.78303C21.779 5.90156 21.8288 6.08783 21.8783 6.25317C21.8783 6.25317 21.9939 6.23691 22.0599 6.2057C22.0599 6.07023 21.9776 5.91849 21.9776 5.88463C21.9776 5.88463 22.0762 5.81656 22.1592 5.81656C22.1755 5.86769 22.2246 5.95203 22.2907 6.07023C22.3568 6.03636 22.4062 6.00283 22.456 5.95236C22.456 5.86802 22.4062 5.76609 22.373 5.66449C22.4886 5.61402 22.5547 5.59709 22.5547 5.59709C22.5879 5.64756 22.6702 5.69902 22.6861 5.74949C22.6861 5.74949 22.7691 5.66449 22.8017 5.58016C22.7691 5.51408 22.7193 5.46328 22.6861 5.39721L22.8183 5.2488C22.8183 5.2488 22.9006 5.31487 22.9338 5.34807C22.9843 5.28134 23.0351 5.21592 23.0514 5.13358C22.9677 5.05058 22.9338 5.05058 22.9172 5.00144C22.9511 4.9523 22.9677 4.88589 23.0016 4.83642C23.0514 4.85302 23.0852 4.88589 23.1191 4.90249C23.153 4.83642 23.1865 4.73781 23.1865 4.67173C23.1526 4.63853 23.1022 4.62226 23.0686 4.58939L23.1025 4.42404C23.1025 4.42404 23.1868 4.44098 23.22 4.44098C23.238 4.33871 23.238 4.23811 23.238 4.17104ZM17.9551 1.15491C17.9717 1.10544 17.9385 1.05597 17.9385 1.00617C17.9056 0.890291 17.8562 0.774746 17.8399 0.642267V0.576527C17.7735 0.543324 17.7077 0.527055 17.6251 0.493852C17.6251 0.493852 17.6251 0.592795 17.6583 0.642267C17.6915 0.725274 17.7409 0.85742 17.7409 0.923493C17.7409 0.972965 17.7572 1.02244 17.7738 1.07224C17.8562 1.12171 17.9551 1.15491 17.9551 1.15491ZM18.3519 1.78477C18.3519 1.65163 18.3024 1.55169 18.2692 1.48495C18.2692 1.46868 18.2526 1.45208 18.2197 1.43548C18.1702 1.38601 18.1208 1.3362 18.1042 1.3362C18.0547 1.28673 18.0215 1.23726 17.972 1.18745C17.9226 1.18745 17.8897 1.23693 17.8565 1.25386C17.8402 1.28673 17.7738 1.31993 17.807 1.3362C17.8233 1.36941 17.8565 1.3694 17.8897 1.38567C17.9226 1.41888 17.9554 1.43514 18.0052 1.46835C18.0713 1.53475 18.1045 1.61776 18.1872 1.6845C18.2201 1.7011 18.2367 1.7177 18.2529 1.7177C18.2692 1.71803 18.3356 1.76817 18.3519 1.78477ZM21.0841 5.11598C21.0841 5.09905 21.0841 4.96691 21.0509 4.96691C21.0343 4.95064 21.0177 4.90116 21.0011 4.88456C20.9848 4.9337 21.0011 4.96691 21.0011 5.01671C21.0011 5.04925 20.935 5.08212 20.9513 5.09905C21.0011 5.11599 21.0343 5.2312 21.0678 5.26374C21.117 5.32981 21.1 5.14819 21.0841 5.11598ZM17.6085 0.42778C17.4597 0.328836 17.2944 0.229559 17.1293 0.163485C17.0304 0.245828 16.9643 0.312235 16.9149 0.312235C16.8654 0.312235 16.8983 0.213291 16.8983 0.146886C16.8485 0.146886 16.8156 0.146885 16.7661 0.130615C16.7329 0.24616 16.7166 0.394577 16.634 0.428112C16.6008 0.444381 16.5845 0.44438 16.5679 0.44438V0.312567C16.5679 0.295966 16.634 0.180419 16.6174 0.163817C16.6174 0.163817 16.4686 0.196689 16.4357 0.21329C16.4191 0.229559 16.3202 0.279365 16.3036 0.279365C16.3036 0.279365 16.2541 0.262762 16.2375 0.262762C16.1881 0.22956 16.1545 0.229561 16.1054 0.19669C16.0393 0.39491 16.023 0.44438 16.023 0.411509C16.023 0.411509 15.7916 0.262761 15.7089 0.163485C15.4945 0.196356 15.4945 0.22956 15.3125 0.295301C15.2464 0.361706 15.1475 0.444049 15.0817 0.542993C15.0485 0.609398 15.0153 0.641937 14.9825 0.708674L15.1475 0.774746C15.1638 0.758477 15.2464 0.642268 15.263 0.609397C15.3789 0.542992 15.5771 0.427778 15.6432 0.361705C15.6595 0.394576 15.8577 0.510453 15.9407 0.559925C16.0068 0.609396 16.0728 0.625999 16.1389 0.659202C16.1721 0.60973 16.2047 0.559925 16.2379 0.44438C16.2873 0.477582 16.3534 0.477583 16.4029 0.493852C16.4029 0.559925 16.4029 0.625999 16.4195 0.692072C16.4195 0.725274 16.4523 0.709004 16.5188 0.675801C16.6177 0.642267 16.717 0.62633 16.7664 0.609729C16.882 0.543324 16.9481 0.411509 17.0473 0.411509C17.1297 0.411509 17.2784 0.460982 17.3116 0.493852C17.3611 0.510453 17.3943 0.527054 17.4434 0.527054C17.5095 0.527054 17.559 0.460982 17.6085 0.42778ZM19.7942 3.3267C19.7942 3.27689 19.7773 3.21514 19.7278 3.18492C19.578 3.23008 19.4124 3.24502 19.2965 3.24502C19.1308 3.24502 18.9651 3.21514 18.7334 3.11984C18.7164 3.15338 18.7334 3.21514 18.7334 3.21514C18.8326 3.29349 18.8326 3.24502 18.9156 3.3267C18.9488 3.3599 18.9651 3.42631 18.9821 3.54218C18.9983 3.60826 19.0315 3.62519 19.0647 3.72413C19.1142 3.69093 19.1969 3.70753 19.1969 3.70753C19.1969 3.62519 19.1474 3.54218 19.1474 3.52625L19.0644 3.3599C19.0807 3.3599 19.1308 3.42631 19.2135 3.42631C19.2301 3.42631 19.2795 3.44291 19.3127 3.42631C19.3127 3.42631 19.3626 3.45984 19.3626 3.49304C19.3958 3.54251 19.3958 3.57605 19.412 3.62519C19.4452 3.62519 19.4615 3.62519 19.4784 3.60859C19.5448 3.60859 19.5777 3.59199 19.5777 3.59199C19.5614 3.55878 19.5445 3.52624 19.5445 3.49304C19.5276 3.45984 19.4947 3.37683 19.4947 3.37683L19.7942 3.3267ZM18.6998 3.10324C18.6998 3.10324 18.6666 2.89805 18.6334 2.67161C18.6002 2.47505 18.5836 2.40931 18.5335 2.32763C18.5079 2.34081 18.4791 2.34645 18.4505 2.3439C18.401 2.36017 18.3678 2.37677 18.3678 2.37677C18.401 2.50792 18.4505 2.67161 18.4671 2.86618C18.4671 2.91465 18.4505 2.96711 18.4671 3.01957L18.6998 3.10324ZM21.5177 5.01671C21.5177 4.17137 21.2169 3.45984 20.8517 3.06971C20.6372 2.84958 20.4058 2.72075 20.1903 2.72075C19.9954 2.72075 19.8443 2.86585 19.8443 3.01924C19.8443 3.60859 20.0791 3.98843 20.2182 4.32178C20.2597 4.40545 20.2736 4.47219 20.2736 4.55453C20.2902 4.76902 20.1292 5.16413 20.012 5.37962C19.9954 5.36268 19.9114 5.34641 19.8443 5.34641C19.678 5.34641 19.6119 5.46196 19.578 5.56223C19.5282 5.56223 19.495 5.52836 19.4456 5.52836C19.247 5.51209 19.081 5.69703 19.081 5.8999C19.081 6.1197 19.1308 6.23525 19.2135 6.37603H19.3792C19.3629 6.32921 19.3127 6.08616 19.2965 6.01876C19.2795 5.91683 19.3127 5.84877 19.3629 5.7983C19.4286 5.69703 19.595 5.7309 19.595 5.7309C19.5452 5.81523 19.4788 5.9507 19.4788 6.08617C19.495 6.1705 19.512 6.29833 19.5618 6.37603H19.6942C19.7278 6.28273 19.6942 6.20403 19.6942 6.12003C19.6942 6.0689 19.6942 6.01876 19.7112 5.96763C19.7112 5.93377 19.7942 6.03503 19.7942 6.03503C19.7942 6.03503 19.8609 5.9507 19.8609 5.8833C19.8609 5.83217 19.761 5.84877 19.7441 5.7983C19.7275 5.74783 19.7773 5.62963 19.7773 5.62963C19.8775 5.56223 19.9615 5.5785 19.9951 5.5785C20.0449 5.5785 20.0621 5.59543 20.1289 5.59543C20.1767 5.59543 20.1903 5.49549 20.1903 5.44569C20.2042 5.46196 20.2457 5.49549 20.2597 5.49549C20.3065 5.51243 20.3231 5.51242 20.3726 5.52869C20.439 5.56256 20.5047 5.59543 20.5708 5.66283V5.6459C20.5545 5.5785 20.5877 5.49549 20.5383 5.46162C20.5383 5.46162 20.4553 5.39555 20.3895 5.36235C20.3563 5.32915 20.3068 5.32914 20.2906 5.29627C20.274 5.27934 20.274 5.26307 20.274 5.23087C20.274 5.197 20.2906 5.14786 20.3072 5.14786C20.3404 5.13159 20.3566 5.14786 20.4227 5.18106C20.4891 5.21426 20.5549 5.26341 20.6043 5.29661C20.6043 5.29661 20.6206 5.32981 20.6206 5.31354C20.687 5.27967 20.687 5.26374 20.687 5.16446C20.6206 5.08212 20.687 5.06585 20.5881 4.99978C20.5549 4.99978 20.3732 4.9337 20.3732 4.9337C20.3732 4.90083 20.4227 4.81915 20.4227 4.81915C20.4393 4.80222 20.4722 4.80222 20.4891 4.83509C20.5881 4.90116 20.6541 4.90117 20.7531 4.9337C20.7693 4.88456 20.7693 4.85136 20.7368 4.81915C20.7036 4.76968 20.6541 4.71988 20.6209 4.70361C20.5549 4.68701 20.522 4.67041 20.4722 4.65414C20.4722 4.60466 20.4559 4.55486 20.4393 4.48879C20.4393 4.45592 20.4722 4.47252 20.5054 4.47252C20.5711 4.45625 20.8524 4.55486 20.8524 4.55486C20.8524 4.48879 20.8358 4.43932 20.8029 4.40578C20.7697 4.37225 20.7368 4.33871 20.6541 4.30518C20.5386 4.27198 20.4396 4.28858 20.3566 4.23811C20.2906 4.17137 20.274 4.15477 20.26 4.0877C20.3068 4.07143 20.3895 4.0545 20.4393 4.0545C20.5217 4.0545 20.5711 4.03823 20.6704 4.0711C20.7036 4.08737 20.8192 4.18797 20.869 4.18797C20.869 4.18797 20.8358 4.0545 20.8025 4.00503C20.7531 4.00503 20.6704 3.90608 20.6375 3.88948C20.4719 3.82374 20.4393 3.85628 20.34 3.87321C20.2906 3.88948 20.2461 3.87321 20.2046 3.87321C20.1906 3.83968 20.2321 3.79021 20.2182 3.757C20.2182 3.74073 20.1627 3.72413 20.1627 3.69126C20.1627 3.69126 20.4058 3.65806 20.5051 3.67499C20.5383 3.69126 20.6372 3.75734 20.6701 3.75734C20.6701 3.75734 20.7033 3.64179 20.6538 3.54285C20.5708 3.52658 20.4888 3.54285 20.4224 3.52658C20.3563 3.50964 20.2906 3.52658 20.2461 3.52658C20.2046 3.52658 20.1631 3.50964 20.1126 3.50964C20.0811 3.46608 20.0636 3.41397 20.0625 3.36023C20.0625 3.36023 20.4556 3.34396 20.4888 3.32703C20.4719 3.31043 20.4393 3.29383 20.4224 3.26062C20.3563 3.15371 20.3068 3.13678 20.2321 3.13678C20.1906 3.13678 20.0791 3.18525 20.012 3.17031C20.012 3.03617 20.0791 2.91432 20.1767 2.91432C20.3563 2.91432 20.5542 3.00264 20.7192 3.18492C21.1332 3.60826 21.3491 4.42238 21.3491 4.99944C21.3491 5.2634 21.3159 5.51242 21.283 5.71396C21.3328 5.7309 21.366 5.7309 21.4165 5.7309C21.4669 5.52903 21.5177 5.26374 21.5177 5.01671ZM17.8562 2.27816C17.8562 2.27816 17.8067 2.065 17.7735 1.96672C17.7572 1.90098 17.724 1.86811 17.6911 1.81797C17.6745 1.83457 17.6579 1.86811 17.6579 1.88438C17.6247 1.93385 17.5749 1.96672 17.6085 2.01586C17.6247 2.0816 17.6247 2.14701 17.6745 2.19615C17.724 2.24562 17.7897 2.22902 17.8562 2.27816ZM19.7274 3.88948C19.7108 3.84001 19.6607 3.82374 19.6278 3.79054C19.6278 3.79054 19.412 3.70786 19.3788 3.70786C19.3456 3.72446 19.4618 3.79054 19.4784 3.82374C19.5448 3.88948 19.7112 4.03823 19.7112 4.03823L19.7274 3.88948ZM18.2692 2.83364C18.2692 2.78516 18.2526 2.75262 18.2363 2.70448C18.2194 2.62247 18.1869 2.57333 18.1699 2.52419C18.1699 2.47538 18.1699 2.44218 18.1536 2.40964C18.137 2.40964 18.1204 2.40964 18.1042 2.39337C18.0547 2.39337 17.988 2.3771 17.988 2.3771C17.988 2.42624 18.0049 2.50825 18.0049 2.55706C18.0049 2.57366 18.071 2.72108 18.0872 2.73702C18.1042 2.76956 18.1204 2.78549 18.1536 2.80143C18.2031 2.8011 18.2363 2.83364 18.2692 2.83364ZM21.0177 5.49582C21.0177 5.47889 20.9679 5.44602 20.951 5.44602C20.951 5.42909 20.9347 5.36301 20.9178 5.34674C20.8846 5.32981 20.8846 5.31354 20.8514 5.31354C20.8514 5.32981 20.8514 5.34674 20.8348 5.37962C20.8348 5.41282 20.8016 5.42875 20.8182 5.46196C20.8348 5.49582 20.8514 5.49582 20.8846 5.51242C20.9012 5.52869 20.951 5.66283 20.9676 5.68043C20.9845 5.66317 20.9845 5.56256 21.0177 5.49582ZM19.8609 4.38885C19.8775 4.33871 19.844 4.23778 19.8271 4.20458C19.7773 4.20458 19.7441 4.17104 19.7108 4.17104C19.6773 4.17104 19.6607 4.0877 19.6112 4.1043C19.6275 4.13784 19.6607 4.30485 19.6773 4.33871C19.6939 4.35531 19.7603 4.47252 19.7603 4.58773C19.8271 4.53826 19.844 4.43932 19.8609 4.38885ZM21.6492 6.29866C21.6824 6.28306 21.6492 6.25185 21.6492 6.23591C21.6329 6.23591 21.5669 6.08683 21.5177 6.01943C21.5177 6.01943 21.5008 6.06923 21.4839 6.1031C21.45 6.1881 21.4334 6.22064 21.4334 6.26778C21.4839 6.29899 21.5008 6.28339 21.5669 6.28339C21.5994 6.28306 21.6329 6.29866 21.6492 6.29866ZM18.733 3.55912C18.733 3.55912 18.5335 3.44324 18.5003 3.3931C18.4508 3.3931 18.4508 3.3931 18.4013 3.44291C18.3681 3.44291 18.3519 3.45951 18.3353 3.49271C18.3847 3.52591 18.4013 3.54218 18.4508 3.57572C18.4674 3.59199 18.484 3.59199 18.5338 3.57572H18.6666C18.6998 3.57572 18.733 3.59199 18.733 3.55912ZM18.3356 3.26062C18.3685 3.21547 18.3024 3.21547 18.2855 3.20053C18.2692 3.17031 18.2367 3.10324 18.2197 3.08664C18.2072 3.05659 18.1905 3.02843 18.1702 3.00297C18.154 2.98471 18.0876 3.00297 18.0547 3.00297C18.0215 3.00297 18.0052 3.00297 17.972 3.01957C18.0052 3.05311 18.0384 3.17064 18.0547 3.17064C18.071 3.20086 18.071 3.2158 18.1042 3.23074C18.1868 3.24535 18.2526 3.23041 18.3356 3.26062ZM19.5448 4.50506C19.5458 4.45605 19.528 4.40851 19.495 4.37225C19.4779 4.32341 19.4668 4.27268 19.4618 4.22117C19.4452 4.18797 19.3788 4.0877 19.3456 4.03823C19.3124 4.00503 19.3124 3.92268 19.2961 3.87321L19.0976 3.90608C19.1965 4.03823 19.2792 4.17137 19.3294 4.30518C19.3456 4.35532 19.495 4.85169 19.495 4.85169C19.5448 4.83509 19.4788 4.58806 19.495 4.57179C19.5116 4.53826 19.5116 4.52199 19.5448 4.50506ZM18.8987 3.92269C18.8987 3.77394 18.8655 3.77394 18.7994 3.70786C18.7994 3.70786 18.75 3.80681 18.7164 3.85661C18.7828 3.92302 18.7994 4.00536 18.7994 4.00536C18.8658 3.93895 18.8658 3.95556 18.8987 3.92269ZM21.2329 6.26745C21.2329 6.25185 21.2329 6.21997 21.1997 6.2047H21.117C21.0841 6.18776 21.0675 6.18776 21.0509 6.2047C21.0011 6.25218 21.0011 6.32987 20.9679 6.37669H21.1665C21.1997 6.34548 21.2329 6.32987 21.2329 6.26745ZM19.0976 4.33871V4.28858C19.0976 4.28858 19.0644 4.22118 19.0644 4.20491C19.0478 4.17137 19.0312 4.12124 18.9817 4.10463C18.9817 4.08803 18.9651 4.17137 18.9485 4.20491C18.9316 4.23811 18.9316 4.22118 18.899 4.28858C18.9319 4.33871 18.9485 4.37225 18.9821 4.42238C18.9821 4.43932 19.0315 4.50506 19.0315 4.50506C19.0315 4.50506 19.0976 4.37225 19.0976 4.33871ZM17.7572 2.57333C17.4926 2.44218 17.2944 2.39304 17.1293 2.39304C17.1293 2.37677 17.0961 2.36017 17.1293 2.3439C17.1594 2.32517 17.1872 2.30312 17.2124 2.27816C17.2618 2.21275 17.2947 2.14701 17.3113 2.0816C17.3608 1.98332 17.4102 2.01586 17.4431 1.80137C17.394 1.80137 17.3774 1.83457 17.3276 1.85117C17.3438 1.80137 17.3608 1.75123 17.3608 1.70143C17.3774 1.60149 17.4102 1.53475 17.4102 1.41888C17.4597 1.40261 17.5424 1.35314 17.559 1.28673C17.559 1.27046 17.559 1.22099 17.5753 1.15491C17.5753 1.05597 17.5919 0.973299 17.559 0.906894C17.559 0.890292 17.4431 0.725273 17.3608 0.675801C17.2449 0.626329 17.1954 0.642268 17.1131 0.659202C17.0141 0.659202 16.8817 0.758478 16.8817 0.939764C16.7827 0.939764 16.5842 0.956697 16.4686 1.05597C16.3849 1.01564 16.2958 0.98779 16.204 0.973298H16.0556C16.0397 0.90094 15.9988 0.836511 15.94 0.791349C15.8574 0.741877 15.7584 0.675801 15.6425 0.675801C15.5931 0.675801 15.5436 0.659201 15.4938 0.692072C15.4443 0.725274 15.3616 0.758478 15.345 0.824219C15.3118 0.906893 15.2793 0.972966 15.2793 1.05564C15.2793 1.13798 15.3288 1.20406 15.3786 1.2864C15.3948 1.3196 15.4114 1.3196 15.4443 1.33587C15.4609 1.33587 15.527 1.36907 15.5436 1.38534C15.5599 1.40227 15.527 1.45175 15.527 1.55102C15.527 1.63403 15.527 1.63403 15.5436 1.7011C15.5436 1.76784 15.5599 1.83424 15.5768 1.88404C15.5273 1.88404 15.4941 1.83424 15.4609 1.86778C15.4609 1.90098 15.4941 1.98299 15.527 2.0484C15.6093 2.13041 15.692 2.21242 15.7415 2.3107C15.7415 2.3273 15.7415 2.35984 15.7581 2.35984C15.6425 2.37611 15.527 2.37611 15.4111 2.40898C15.3037 2.44572 15.1989 2.48953 15.0973 2.54013C15.0973 2.60554 15.1139 2.65435 15.1139 2.65435C15.1306 2.65435 15.2793 2.57267 15.4114 2.54013C15.6263 2.47472 15.7418 2.49099 15.7418 2.49099C15.7584 2.52386 15.775 2.573 15.7584 2.58927C15.5582 2.671 15.3649 2.76871 15.1804 2.88145C15.1966 2.91399 15.1804 2.96645 15.2132 3.00198C15.3921 2.8922 15.5801 2.79789 15.775 2.72009C15.8411 2.70382 15.8411 2.72009 15.874 2.72009C15.8902 2.73602 15.9234 2.80044 15.9563 2.80044C16.0058 2.80044 16.0556 2.75196 16.105 2.73602C16.204 2.70382 16.287 2.67095 16.3859 2.65401C16.4191 2.63807 16.4191 2.60521 16.4191 2.57234C16.4357 2.53946 16.4357 2.53946 16.4357 2.49032C16.4357 2.47406 16.3697 2.45745 16.3365 2.39205C16.3033 2.34291 16.3365 2.29376 16.3202 2.29376C16.2707 2.32663 16.2043 2.35951 16.1881 2.29376C16.1715 2.24462 16.1715 2.17922 16.2213 2.16261C16.3857 2.09722 16.5688 2.09722 16.7332 2.16261C16.7664 2.16261 16.7827 2.19548 16.7827 2.22836C16.799 2.26123 16.7827 2.29376 16.7495 2.32663C16.7 2.3429 16.6506 2.27749 16.6506 2.32663C16.6506 2.37577 16.6177 2.44118 16.535 2.47405C16.5188 2.49032 16.535 2.53946 16.5513 2.5886C16.5513 2.60487 16.5513 2.63774 16.5682 2.63774C16.6343 2.65368 16.7332 2.67061 16.7827 2.70348C16.8485 2.73569 16.9643 2.83264 16.9809 2.81671C17.0304 2.78417 17.0473 2.73569 17.0799 2.70348C17.2618 2.78417 17.4106 2.83264 17.6413 2.98338C17.6745 2.98338 17.6745 2.91333 17.6745 2.88079C17.5546 2.81402 17.4335 2.74937 17.3113 2.68688C17.2449 2.67062 17.2124 2.63774 17.1456 2.62147V2.49032C17.2615 2.5232 17.4926 2.53946 17.724 2.67061C17.7406 2.62247 17.7735 2.5896 17.7572 2.57333ZM18.1536 3.4097C18.0872 3.3765 18.0049 3.3433 17.9388 3.3101C17.8789 3.28139 17.8234 3.2444 17.7738 3.2002C17.7409 3.2002 17.7243 3.21514 17.7077 3.21514C17.6745 3.23008 17.6583 3.24502 17.6251 3.26029C17.6745 3.3267 17.724 3.3765 17.7738 3.42631C17.7901 3.45984 17.8402 3.45984 17.8728 3.45984H18.0384C18.0872 3.44291 18.1204 3.44291 18.1536 3.4097ZM18.4342 3.82341C18.4674 3.82341 18.4674 3.757 18.4342 3.757C18.3187 3.72413 18.2197 3.69126 18.1536 3.59199C18.137 3.60859 18.0381 3.64146 18.0049 3.67499C18.0049 3.67499 18.0381 3.75734 18.1204 3.84001C18.1699 3.88948 18.2692 3.85661 18.3519 3.82374L18.4342 3.82341ZM20.8019 6.17083H20.7029C20.6778 6.17129 20.6534 6.17924 20.6328 6.19368C20.6122 6.20811 20.5964 6.22837 20.5874 6.25185C20.575 6.29327 20.5522 6.33079 20.521 6.36075C20.5379 6.37636 20.5705 6.37636 20.5874 6.37636H20.7524C20.7687 6.36075 20.7687 6.31393 20.7856 6.28306C20.7856 6.25185 20.8019 6.2203 20.8019 6.17083ZM19.2792 4.78562C19.2629 4.75242 19.2463 4.70328 19.2297 4.67008C19.2297 4.65381 19.2297 4.6206 19.2131 4.57146C19.2131 4.57146 19.0973 4.65381 19.0807 4.67008C19.1471 4.75242 19.1139 4.80189 19.1305 4.86763C19.1305 4.90083 19.1965 4.91743 19.2131 4.96657C19.2131 4.98318 19.1799 5.13192 19.1799 5.13192C19.2792 4.99978 19.2792 4.83476 19.2792 4.78562ZM20.5047 5.90056C20.4058 5.71429 20.2318 5.66316 20.1455 5.66316C20.0621 5.66316 19.9615 5.7651 19.8941 6.0865C19.8775 6.20437 19.8606 6.29866 19.8775 6.36075L20.0283 6.37636C20.0621 6.32954 20.0621 6.25185 20.0957 6.18777C20.0957 6.1539 20.1289 6.1539 20.1624 6.1539C20.19 6.17083 20.2454 6.25185 20.2733 6.28306C20.2899 6.25185 20.3228 6.18777 20.3228 6.1373C20.3228 6.12036 20.2733 6.08683 20.2594 6.08683C20.2179 6.0523 20.19 6.01943 20.1285 6.01943C20.1119 5.95136 20.2039 5.86703 20.2039 5.86703C20.3062 5.86703 20.4217 6.00183 20.4217 6.00183C20.4549 5.9849 20.4715 5.9341 20.5047 5.90056ZM18.9485 4.86763C18.9316 4.85136 18.9153 4.71988 18.899 4.6206C18.899 4.58773 18.8492 4.53826 18.816 4.50506C18.7998 4.55453 18.75 4.58773 18.75 4.65381C18.75 4.65381 18.8326 4.73615 18.8489 4.78562C18.8658 4.81882 18.8489 4.96657 18.8658 4.99978C18.9153 4.95064 18.9485 4.9337 18.9485 4.86763ZM17.5919 3.57572V3.54218C17.5427 3.49271 17.4763 3.3765 17.4763 3.3433C17.4431 3.3267 17.4431 3.3267 17.394 3.3267C17.3774 3.3101 17.3442 3.3101 17.3276 3.3101C17.3276 3.3101 17.3438 3.3931 17.377 3.47611C17.3936 3.50931 17.4265 3.54218 17.4428 3.54218C17.4763 3.55912 17.5424 3.57572 17.5919 3.57572ZM18.1204 4.0545C18.0872 4.02163 18.0544 3.98843 18.0049 3.95556C17.9385 3.93895 17.9056 3.90608 17.8728 3.83968C17.8568 3.80311 17.8345 3.76962 17.807 3.74073C17.7738 3.74073 17.7575 3.757 17.724 3.77394C17.6911 3.80681 17.6251 3.80681 17.5919 3.85628C17.6085 3.88948 17.6251 3.92268 17.6583 3.95556C17.6745 3.97216 17.6915 4.00503 17.7572 4.03823C17.8728 4.1043 17.9056 4.1209 17.9056 4.1209C18.0049 4.13784 18.1204 4.0545 18.1204 4.0545ZM15.1634 1.3362C15.1634 1.30333 15.1472 1.27013 15.1305 1.23726C15.1139 1.20439 15.0811 1.12171 15.0811 1.10544C15.0811 0.973299 15.0973 0.939764 15.1139 0.824551C15.0479 0.808281 14.9652 0.80828 14.9323 0.874021C14.8991 0.923493 14.8991 0.973298 14.8991 1.02277C14.8991 1.10544 14.9154 1.17152 14.9323 1.27046C14.8659 1.31993 14.8334 1.35347 14.767 1.386C14.7836 1.48495 14.8002 1.66823 14.8002 1.66823C14.8334 1.61842 14.8334 1.61842 14.8659 1.58522C14.9323 1.53509 14.9649 1.50221 15.0479 1.43581C15.0641 1.40294 15.0811 1.41921 15.1305 1.38634C15.1468 1.36941 15.1634 1.35314 15.1634 1.3362ZM17.3276 3.82341C17.2837 3.75921 17.2554 3.68565 17.2449 3.60859C17.212 3.57572 17.2781 3.45984 17.1954 3.45984C17.1522 3.44134 17.1082 3.42473 17.0636 3.41004C17.0473 3.45984 17.0473 3.55912 17.0636 3.60892C17.0636 3.65839 17.1459 3.80714 17.1792 3.82374C17.1958 3.84001 17.2784 3.84001 17.295 3.84001C17.3113 3.82341 17.3276 3.82341 17.3276 3.82341ZM16.9149 2.88212C16.7827 2.80143 16.6174 2.78516 16.4517 2.78516C16.3033 2.78516 16.1382 2.8011 15.9732 2.91432C15.9895 2.98438 16.0061 3.03618 16.039 3.10291C16.0556 3.10291 16.0722 3.13678 16.0884 3.13678C16.1216 3.10291 16.1542 3.05278 16.204 3.03617V3.10324C16.204 3.15371 16.204 3.18525 16.2209 3.23041C16.2209 3.27689 16.2704 3.2769 16.3365 3.2769C16.4025 3.2769 16.4191 3.17031 16.4191 3.15338C16.4191 3.15338 16.4357 3.21514 16.5347 3.26029C16.5347 3.26029 16.6502 3.26029 16.6502 3.24502C16.6668 3.16998 16.6834 3.15338 16.6668 3.08598C16.6668 3.08598 16.7658 3.15305 16.8156 3.2148C16.8485 3.18459 16.8817 3.11951 16.8817 3.10258C16.9149 3.03618 16.9149 2.94952 16.9149 2.88212ZM17.7735 4.30518C17.7074 4.25504 17.6911 4.22118 17.6579 4.18797C17.6085 4.15444 17.5749 4.13784 17.5092 4.0711H17.2944C17.3276 4.15411 17.3438 4.20457 17.4597 4.28825C17.5258 4.33871 17.6579 4.32178 17.7735 4.30518ZM18.5504 5.47889C18.5504 5.47889 18.5172 5.27967 18.5172 5.03265C18.5172 5.01638 18.4674 4.9171 18.4342 4.90083C18.4179 4.88423 18.3851 4.86763 18.3519 4.85136V4.91743C18.3519 4.98317 18.3681 4.99978 18.3681 5.03298C18.3681 5.06618 18.4176 5.29694 18.4176 5.36301C18.5006 5.37961 18.5006 5.44602 18.5504 5.47889ZM15.1966 1.61809C15.1804 1.58489 15.0479 1.61809 15.0147 1.61809C14.9323 1.63469 14.7836 1.68483 14.7836 1.71803C14.767 1.76817 14.767 1.88471 14.767 1.90131C14.7836 1.95045 14.7836 1.99959 14.8002 2.04873C14.8497 1.99959 14.8659 1.98332 14.8991 1.96672C14.9154 1.95045 15.0973 1.81797 15.1136 1.80104C15.1468 1.76783 15.1631 1.78444 15.18 1.75124C15.1804 1.65163 15.2129 1.65163 15.1966 1.61809ZM16.9643 3.95556C16.9643 3.95556 16.9311 3.80681 16.9149 3.74073V3.47644C16.8485 3.49304 16.8322 3.50964 16.8156 3.50964C16.7661 3.54285 16.7329 3.55912 16.7329 3.59232C16.7329 3.65839 16.7492 3.72447 16.7492 3.75734C16.7492 3.80681 16.7492 3.84001 16.7658 3.85661C16.8153 3.87354 16.8319 3.87354 16.8979 3.90608C16.8983 3.92268 16.9643 3.95556 16.9643 3.95556ZM16.6174 3.757C16.634 3.70753 16.6174 3.62519 16.6008 3.54251C16.5347 3.55912 16.4025 3.57605 16.4025 3.62552C16.3863 3.67499 16.4025 3.72447 16.4025 3.75734C16.4191 3.79054 16.4191 3.82374 16.4191 3.87354C16.4191 3.90642 16.4025 3.93929 16.4191 3.98909C16.4357 3.95589 16.5184 3.92302 16.5347 3.88981C16.5679 3.83968 16.6004 3.80681 16.6174 3.757ZM17.2449 4.45592C17.1954 4.42238 17.1131 4.32178 17.0633 4.27164C17.0301 4.23778 17.047 4.18797 17.0138 4.15411C16.9806 4.15411 16.9474 4.15411 16.9149 4.17071C16.8654 4.17071 16.8322 4.17071 16.7827 4.18764C16.799 4.22084 16.799 4.25438 16.8322 4.27131C16.8983 4.33805 16.8983 4.35465 16.9643 4.45559C16.9806 4.48846 17.0633 4.50473 17.1293 4.50473C17.1625 4.50506 17.2283 4.47252 17.2449 4.45592ZM15.1634 1.99959C14.9984 2.04873 14.8829 2.0816 14.8497 2.11447C14.767 2.16328 14.7341 2.19648 14.6514 2.24562C14.6514 2.3439 14.6514 2.3439 14.6677 2.39304L14.6846 2.5896C14.7175 2.54046 14.8165 2.44218 14.8659 2.37644C14.8991 2.34357 14.9649 2.26156 15.1305 2.17988C15.1468 2.11447 15.1634 2.06533 15.1634 1.99959ZM16.2704 3.98876C16.3199 3.93929 16.2704 3.85661 16.2704 3.80681C16.2535 3.75733 16.2704 3.70786 16.2535 3.65806C16.2458 3.64293 16.2339 3.63027 16.2194 3.62152C16.2048 3.61277 16.1881 3.60829 16.1711 3.60859C16.1379 3.60859 16.0552 3.55912 16.0552 3.59199C15.9729 3.59199 16.0386 3.67499 16.0386 3.72413C16.0386 3.79021 16.2037 3.95522 16.2037 3.95522C16.2372 3.97216 16.2372 3.95555 16.2704 3.98876ZM15.8902 3.50931C15.8902 3.50931 15.874 3.42631 15.857 3.3931C15.8402 3.35238 15.8115 3.31766 15.7747 3.29349C15.7581 3.29349 15.7252 3.26029 15.7083 3.2769C15.7083 3.2769 15.6917 3.4097 15.6754 3.42631C15.7083 3.47611 15.7411 3.50931 15.7577 3.55878C15.7743 3.60826 15.791 3.67466 15.8242 3.72413C15.8408 3.65806 15.8902 3.62519 15.8902 3.50931ZM15.5599 3.60859C15.5599 3.60859 15.5104 3.45984 15.4938 3.37683C15.4775 3.32703 15.5101 3.26062 15.4775 3.21547C15.4609 3.18525 15.4111 3.17031 15.3786 3.15371C15.345 3.15371 15.3122 3.21547 15.3122 3.27723C15.3122 3.31076 15.3291 3.42664 15.3454 3.47677C15.3454 3.49338 15.3789 3.50998 15.4114 3.52658C15.4609 3.55912 15.5104 3.57572 15.5599 3.60859ZM16.9806 4.96657C16.9643 4.90083 16.9474 4.81882 16.9311 4.75242C16.9311 4.75242 16.8817 4.71955 16.8322 4.71955C16.7986 4.71955 16.7661 4.70328 16.7329 4.71955C16.7492 4.76902 16.7492 4.80189 16.7661 4.85103C16.8156 4.9171 16.8817 4.94997 16.9477 4.99944C16.9643 4.99978 16.9806 4.96657 16.9806 4.96657ZM14.9323 3.03617C14.9157 2.91432 14.8829 2.8177 14.8829 2.78516C14.8829 2.65468 14.8995 2.62247 14.9157 2.54046C14.8497 2.57333 14.767 2.62247 14.7012 2.65468V2.73669C14.7012 2.76923 14.7175 2.94952 14.7175 3.00264C14.7344 3.05278 14.7344 3.10324 14.7507 3.15371C14.767 3.18526 14.7839 3.21547 14.7839 3.24535C14.7839 3.24535 14.8168 3.23041 14.8334 3.20053C14.8829 3.15338 14.8991 3.10324 14.9323 3.03617ZM16.5181 4.20458C16.5181 4.20458 16.4188 4.22084 16.4022 4.23778C16.3859 4.23778 16.3199 4.23778 16.2867 4.27164C16.2867 4.32178 16.2867 4.37192 16.2704 4.43899C16.2372 4.48846 16.1542 4.52166 16.1542 4.604C16.1542 4.604 16.2206 4.62027 16.2372 4.62027C16.2704 4.604 16.3033 4.57113 16.3199 4.5542C16.3693 4.53793 16.4022 4.50473 16.4517 4.48812C16.4852 4.47252 16.5181 4.20458 16.5181 4.20458ZM18.2526 6.15423C18.2031 6.17116 18.1042 6.12036 18.1042 6.2203C18.071 6.28306 18.0381 6.34548 18.0381 6.37669H18.2194C18.2692 6.31427 18.2855 6.25184 18.2526 6.15423ZM18.4342 5.7143C18.4013 5.56256 18.3187 5.49582 18.2363 5.44569C18.2031 5.42875 17.8894 5.27967 17.8399 5.27967C17.7409 5.29661 17.5753 5.29661 17.4763 5.34641C17.46 5.29661 17.4431 5.21427 17.4763 5.16413C17.4926 5.13159 17.6583 5.13159 17.7077 5.13159C17.8897 5.14786 17.9883 5.18073 18.0384 5.18073C18.0876 5.23053 18.137 5.23053 18.154 5.23053C18.154 5.23053 18.1374 5.13126 18.1208 5.09839C18.0547 5.06519 17.9883 5.04858 17.9388 5.03231C17.8565 4.99911 17.8233 4.98284 17.6915 4.96624C17.6417 4.96624 17.6417 4.98284 17.5427 4.98284C17.5427 4.96624 17.559 4.94997 17.5756 4.93337C17.6088 4.88423 17.6417 4.85103 17.6749 4.81882H17.9388C18.0052 4.83476 18.0384 4.85136 18.1208 4.88423C18.1702 4.88423 18.1208 4.80189 18.1208 4.75242C18.1019 4.73214 18.0795 4.71549 18.0547 4.70328C17.9883 4.68668 17.9388 4.67007 17.8728 4.63687C17.8233 4.6206 17.724 4.58773 17.6413 4.604C17.559 4.63687 17.559 4.62027 17.4926 4.65347C17.4102 4.76902 17.3608 4.9005 17.3113 5.03231C17.3113 5.06552 17.2283 5.26307 17.2283 5.29627C17.2283 5.31321 17.212 5.34608 17.212 5.34608C17.1456 5.32915 16.8481 5.27934 16.7658 5.36235C16.7326 5.39555 16.6994 5.42842 16.6499 5.52836C16.5838 5.47856 16.5344 5.46162 16.4683 5.46162C16.4218 5.46332 16.3763 5.47636 16.336 5.49963C16.2957 5.52289 16.2616 5.55567 16.2369 5.5951C16.2369 5.61203 16.1047 5.86603 16.1213 6.1021C16.1379 6.23491 16.1874 6.28239 16.2531 6.37569H16.4351C16.4185 6.31327 16.3856 6.23491 16.3521 6.1363C16.3358 6.0513 16.369 5.89957 16.3853 5.7641C16.3853 5.7641 16.4347 5.73023 16.4846 5.71363C16.5178 5.67977 16.534 5.6967 16.5835 5.6967C16.5998 5.6967 16.5998 5.71363 16.5998 5.71363C16.5337 5.78103 16.5337 5.84843 16.5174 5.95037C16.5174 6.00083 16.5835 6.25118 16.6492 6.37569H16.7814C16.7814 6.37569 16.7482 6.0513 16.7648 6.01843C16.7648 5.95037 16.7814 5.8999 16.7977 5.84843C16.8312 5.86603 16.8641 5.86603 16.8973 5.88297C16.9464 5.91683 16.9464 5.95037 16.9464 6.00083C16.9464 6.08583 16.9464 6.1021 16.9298 6.15323V6.23491C16.9298 6.31327 16.9464 6.37569 16.9464 6.37569H17.0785C17.0785 6.23491 17.0951 6.25118 17.1117 6.17017C17.128 6.1021 17.1117 6.06824 17.128 6.01843C17.128 5.9839 17.1443 5.95037 17.1612 5.93343C17.2107 5.89957 17.2436 5.89957 17.31 5.9165C17.31 5.96697 17.31 6.01843 17.2934 6.06824C17.2768 6.15323 17.2605 6.23491 17.2273 6.31327C17.2273 6.32888 17.211 6.36009 17.1941 6.37569H17.3926C17.3926 6.37569 17.4255 6.31327 17.4418 6.23491C17.4913 6.28239 17.5577 6.25118 17.5905 6.25118C17.64 6.23491 17.6732 6.1871 17.7064 6.15323C17.64 6.1021 17.4916 6.11937 17.4916 6.0513C17.4587 5.93343 17.4916 5.9165 17.4916 5.84843C17.4916 5.74717 17.393 5.71363 17.2934 5.6967C17.2605 5.67976 17.1941 5.67977 17.1616 5.67977C17.1284 5.6967 17.0951 5.74717 17.0623 5.74717C17.0623 5.74717 16.9959 5.6967 16.9464 5.67977C16.9135 5.67977 16.8146 5.64523 16.8146 5.64523C16.8312 5.61137 16.8475 5.57783 16.8641 5.56156C16.8803 5.54463 16.9298 5.49483 16.9464 5.49483C16.9796 5.47789 17.0291 5.49483 17.0623 5.51176C17.1446 5.52803 17.211 5.54496 17.2273 5.54496C17.2439 5.54496 17.2934 5.57817 17.2934 5.57817C17.3428 5.54496 17.3428 5.51209 17.376 5.51209C17.475 5.47823 17.5082 5.46162 17.6075 5.46162C17.6901 5.46162 17.7562 5.61203 17.8057 5.6625C17.822 5.69703 17.9375 5.84877 18.0039 5.98423C18.0371 5.9673 18.0534 5.93377 18.0862 5.93377C18.0862 5.8999 18.07 5.76443 18.0534 5.7475C18.0039 5.5951 17.9046 5.5619 17.9046 5.52836C17.9375 5.52836 18.0039 5.56223 18.0371 5.56223C18.07 5.5785 18.1194 5.59543 18.1689 5.62963C18.1859 5.6459 18.2184 5.66283 18.2353 5.6801C18.2516 5.7475 18.2516 5.79797 18.2841 5.86636C18.2841 5.8833 18.2841 5.90023 18.3011 5.91683C18.3519 5.81556 18.4013 5.79863 18.4342 5.7143ZM16.1382 4.13784C16.1382 4.1209 16.0888 4.1209 16.0556 4.1209C16.0227 4.1209 15.9895 4.13784 15.9563 4.13784C15.9245 4.18925 15.9021 4.24592 15.8902 4.30518C15.874 4.35532 15.8408 4.38885 15.8245 4.42272C15.8245 4.42272 15.9732 4.38918 16.0058 4.38918C16.0552 4.35565 16.0884 4.33904 16.1216 4.27197C16.1382 4.22117 16.1545 4.20457 16.1382 4.13784ZM15.0973 3.29349C15.0641 3.21514 15.0479 3.2002 14.9984 3.15338C14.9818 3.16998 14.8991 3.21514 14.8825 3.24502C14.8526 3.25679 14.8247 3.27315 14.7999 3.29349C14.7999 3.3267 14.8161 3.3433 14.8331 3.3765C14.8331 3.4097 14.8493 3.49271 14.8493 3.55878C14.8493 3.55878 14.8988 3.52591 14.8988 3.49271C14.9818 3.3931 15.0811 3.31043 15.0973 3.29349ZM16.5679 5.13192C16.551 5.11565 16.551 5.08212 16.5347 5.04892C16.5015 4.9503 16.5184 4.90083 16.5015 4.80189H16.3697C16.3365 4.81882 16.3202 4.80189 16.287 4.81882C16.287 4.88423 16.3033 4.93337 16.3527 5.01638C16.4022 5.11599 16.5679 5.13192 16.5679 5.13192ZM15.7418 4.18797V4.0711C15.7255 4.0379 15.7418 3.97216 15.7418 3.92235C15.7255 3.88915 15.6923 3.90575 15.6761 3.92235H15.5768C15.5768 3.92235 15.5436 4.05417 15.5436 4.15411C15.527 4.20424 15.5104 4.23745 15.5104 4.25438C15.4775 4.32145 15.4609 4.33805 15.428 4.42205C15.4775 4.43898 15.527 4.40545 15.5599 4.40545C15.5931 4.38852 15.6425 4.37191 15.6588 4.35498C15.6757 4.33871 15.7255 4.22118 15.7418 4.18797ZM15.2129 3.65806C15.18 3.62519 15.1634 3.57572 15.1468 3.54251C15.0811 3.54251 14.8331 3.64179 14.8331 3.64179C14.8825 3.72447 14.9154 3.80681 14.9486 3.90608C14.9818 3.88948 15.0143 3.87321 15.0475 3.84001C15.0811 3.79021 15.1804 3.69126 15.2129 3.65806ZM15.2793 3.92269C15.2461 3.90608 15.1804 3.93895 15.1305 3.93895C15.0811 3.93895 14.9649 3.93895 14.9649 3.95556C14.9818 3.98876 14.9818 4.02163 14.9984 4.0545C15.0147 4.0877 15.0316 4.1209 15.0316 4.20458C15.0316 4.25471 15.0479 4.30485 15.0316 4.37192C15.0316 4.37192 15.2461 4.25438 15.2461 4.22084C15.2627 4.17104 15.2461 4.1375 15.2627 4.08737C15.2627 4.0545 15.2627 3.97216 15.2793 3.92269ZM15.8574 4.85136C15.6761 4.78562 15.692 4.71988 15.6263 4.68668C15.5436 4.6206 15.4114 4.55486 15.2129 4.48879C15.1634 4.47252 15.0479 4.48879 14.9984 4.48879C14.8659 4.71988 14.8165 4.9337 14.7172 5.1814L14.6677 5.32981C14.5854 5.28001 14.5027 5.24747 14.42 5.24747C14.2882 5.24747 14.1893 5.29661 14.1395 5.42909C14.09 5.41282 14.0236 5.37995 13.9412 5.39588C13.8254 5.41282 13.7264 5.47889 13.6766 5.57883C13.6271 5.64623 13.6105 5.7143 13.6271 5.7817C13.5448 5.81557 13.4953 5.90023 13.4618 5.96796C13.4286 6.10277 13.5448 6.32987 13.5939 6.37636H13.759C13.7257 6.23558 13.66 6.17083 13.7095 6.0191C13.7427 5.9341 13.8579 5.90056 13.8914 5.88363C13.8914 5.81556 13.8084 5.7651 13.825 5.69736C13.8582 5.61236 13.9572 5.61236 14.0564 5.62996C14.0402 5.73123 14.0232 5.8667 14.007 6.0015C13.9907 6.1539 14.0727 6.37636 14.0727 6.37636H14.2547C14.2381 6.32954 14.2215 6.28306 14.2215 6.23558C14.2049 6.18743 14.2049 6.1539 14.2049 6.10277C14.2215 6.03536 14.2215 5.96796 14.2215 5.91716C14.3868 5.83217 14.3373 5.95103 14.3699 5.98457C14.3699 5.98457 14.4363 5.83217 14.3536 5.76476C14.337 5.74783 14.2377 5.76476 14.2377 5.74783C14.2377 5.7309 14.2543 5.68043 14.2706 5.62996C14.3038 5.56256 14.3201 5.54563 14.3536 5.49582C14.3699 5.47889 14.4194 5.47889 14.4858 5.49582C14.502 5.49582 14.5847 5.51276 14.6345 5.52903C14.6176 5.57883 14.5518 5.68076 14.5356 5.73123C14.4692 5.9341 14.4692 6.17083 14.4861 6.37636H14.6674C14.6674 6.26745 14.6511 6.13696 14.6674 6.0191C14.7006 5.8667 14.7504 5.8491 14.7667 5.8491C14.7999 5.8491 14.8331 5.88363 14.8493 5.91716C14.8825 6.0865 14.7833 6.23558 14.7833 6.37636H14.9151C14.9151 6.37636 14.9645 6.36075 14.9815 6.31393C15.0143 6.21997 15.0807 6.12003 15.097 6.01876C15.1136 5.93376 15.0807 5.86636 15.0313 5.76443C14.9818 5.69703 14.932 5.6459 14.8165 5.56223C14.7836 5.49549 14.8165 5.41249 14.8165 5.41249C14.8165 5.42875 14.8825 5.39555 14.9154 5.39555C15.0475 5.42875 15.0811 5.42875 15.1468 5.46162C15.1963 5.47856 15.2624 5.51209 15.3118 5.54529C15.3613 5.5785 15.4111 5.6801 15.4606 5.7983C15.4606 5.7983 15.4938 5.5785 15.4938 5.51242C15.4277 5.44569 15.3616 5.37961 15.2624 5.32948C15.18 5.26341 14.9984 5.21393 14.9154 5.18106C14.9154 5.18106 14.9486 5.13192 14.9486 5.09872C15.0475 5.08179 15.1631 5.08179 15.2126 5.09872C15.3782 5.14786 15.5761 5.24714 15.6585 5.31321C15.6585 5.31321 15.6917 5.24714 15.6917 5.21393C15.6917 5.21393 15.4606 5.06552 15.4772 5.01605C15.4108 4.96624 15.3613 4.91677 15.2952 4.90017C15.1963 4.88357 14.9981 4.86697 14.9981 4.86697C14.9981 4.86697 15.0475 4.80156 15.097 4.75175H15.2292C15.2952 4.75175 15.4603 4.80123 15.5595 4.8507C15.7083 4.91677 15.7909 4.96591 15.8072 4.99911C15.8245 4.95064 15.8408 4.88423 15.8574 4.85136ZM15.4609 6.2047C15.4443 6.17083 15.3948 6.08683 15.3291 6.0523C15.2132 6.0523 15.2461 6.23591 15.2132 6.31427C15.197 6.32987 15.1804 6.36108 15.197 6.37669H15.4446C15.4443 6.37636 15.4609 6.23591 15.4609 6.2047ZM21.4334 1.50188L21.2329 1.35313L21.1661 1.27013L21.3487 1.22066L21.4334 1.50188ZM20.7192 1.20439H20.6369L20.5379 1.27046L20.4058 1.17152L20.5542 1.08884L20.7192 1.20439ZM17.4265 1.15491C17.418 1.17882 17.4024 1.19955 17.3817 1.21427C17.361 1.229 17.3363 1.23702 17.311 1.23726C17.228 1.13831 17.1453 1.07224 17.0301 1.03904C17.0138 0.973297 17.0633 0.907225 17.0961 0.857753C17.1456 0.808281 17.212 0.791347 17.2778 0.80828C17.3604 0.82455 17.377 0.841153 17.4099 0.874355C17.4597 0.939764 17.4431 1.07224 17.4265 1.15491ZM16.9149 1.3362C16.8817 1.36941 16.7986 1.35313 16.7163 1.35313C16.7163 1.31993 16.7163 1.25386 16.6831 1.25386C16.6499 1.22066 16.6004 1.22066 16.6004 1.18745C16.5344 1.12138 16.6994 1.17118 16.7824 1.18745C16.8156 1.18779 17.0961 1.25386 16.9149 1.3362ZM17.2283 1.51815C17.2283 1.51815 17.212 1.55169 17.1951 1.55169C17.1785 1.58522 17.1456 1.60182 17.1127 1.61809C17.0961 1.61809 17.0795 1.65163 17.0795 1.6679C17.0467 1.7177 16.9969 1.73463 16.9308 1.73463C16.8979 1.73463 16.8319 1.73463 16.7986 1.6679C16.7986 1.6679 16.8156 1.86811 16.8156 1.91758C16.8156 1.93385 16.8322 1.93385 16.8322 1.93385C16.8983 1.95045 16.9149 2.01586 16.9477 2.04873C16.9477 2.04873 16.9643 2.065 16.9809 2.065C17.0473 2.11414 17.1954 2.17988 17.1297 2.17988C17.1297 2.21275 17.0802 2.29443 17.0636 2.29443C17.0141 2.24529 16.9315 2.21242 16.8654 2.17988C16.8485 2.14701 16.8322 2.11447 16.8159 2.0816C16.7827 2.04873 16.7664 2.04873 16.7166 2.01586C16.7166 1.90098 16.7 1.90098 16.7 1.78444C16.7 1.76784 16.6672 1.58456 16.6672 1.58456C16.6672 1.56763 16.7166 1.51782 16.7661 1.50155C16.7658 1.50188 17.0795 1.50188 17.2283 1.51815ZM16.3365 1.18779C16.3365 1.25419 16.287 1.28673 16.2375 1.35347C16.2043 1.40294 16.1881 1.36974 16.1054 1.36974H16.023C16.023 1.32026 16.0559 1.304 16.1054 1.25419C16.1549 1.22099 16.2043 1.18779 16.2375 1.18779C16.2704 1.17119 16.3365 1.15492 16.3365 1.18779ZM15.9068 1.00617C15.9068 1.02244 15.9068 1.03904 15.8906 1.03904C15.8906 1.03904 15.7916 1.10544 15.7584 1.13832C15.6761 1.18779 15.6591 1.27046 15.6097 1.27046C15.5768 1.23726 15.5107 1.18779 15.4778 1.12171C15.4284 1.05597 15.4446 0.989567 15.4446 0.973298C15.4779 0.874022 15.5934 0.84082 15.6591 0.824551C15.6923 0.824551 15.7255 0.82455 15.775 0.857753C15.8408 0.890291 15.874 0.890291 15.9068 1.00617ZM17.0301 2.47505C17.0301 2.49132 17.0138 2.57333 17.0138 2.57333C16.9474 2.55673 16.8983 2.50792 16.8156 2.50792C16.8156 2.45878 16.8156 2.45878 16.8322 2.44218C16.9311 2.42591 16.9806 2.45845 17.0301 2.47505ZM16.2372 1.58489C16.2372 1.60149 16.2209 1.70143 16.2209 1.7177C16.204 1.81797 16.204 1.85118 16.1877 1.99959V2.04873C16.1711 2.0816 16.1047 2.09787 16.0718 2.13074C16.0552 2.17988 16.0552 2.21275 16.0058 2.22902C15.9563 2.24529 15.9234 2.29443 15.8902 2.27816C15.8408 2.24529 15.857 2.16328 15.8902 2.11447C15.9234 2.06533 15.9892 2.03246 16.039 2.01619C16.105 1.99992 16.0884 1.86844 16.0884 1.85151C16.1047 1.8183 16.0884 1.7685 16.0884 1.73496C16.0552 1.75157 16.0552 1.73497 15.9892 1.75157C15.9234 1.75157 15.8902 1.71803 15.857 1.68483C15.8242 1.65163 15.7415 1.58489 15.7083 1.51815C15.791 1.50188 15.857 1.50188 15.9397 1.50188H16.1542C16.204 1.51815 16.2372 1.55169 16.2372 1.58489ZM16.105 2.47505C16.0792 2.49382 16.0516 2.51015 16.0227 2.52386C15.9895 2.54046 15.9732 2.55673 15.9238 2.573C15.9068 2.54013 15.8906 2.47472 15.8906 2.47472C15.8906 2.47472 15.9566 2.45812 16.0061 2.45812C16.039 2.45845 16.0722 2.45845 16.105 2.47505ZM30.8726 4.74445H29.65L30.2447 3.15504C30.261 3.23805 30.3101 3.35492 30.3433 3.43826L30.8726 4.74445ZM37.4211 2.35751V2.2423H36.0801V2.35751C36.5937 2.35751 36.5937 3.02157 36.5937 3.52127V4.84439C36.5937 4.94499 36.5937 4.97886 36.61 5.0954L34.2098 2.24197H33.0035V2.35718C33.3505 2.35718 33.6473 2.53847 33.6473 2.88809V5.35936C33.6473 6.0689 33.482 6.26347 33.1025 6.26347V6.37636H34.5069V6.26347C34.143 6.26347 33.977 6.0689 33.977 5.35936V3.30479C33.977 3.17131 33.9607 3.0883 33.9438 3.03817L36.7584 6.42616H36.9244V3.52093C36.9251 3.02156 36.9081 2.35751 37.4211 2.35751ZM42.279 6.37636V6.26347C42.0313 6.26347 41.7667 6.0689 41.5688 5.83814L39.9827 4.03723L40.825 3.17164C41.172 2.82202 41.6183 2.40665 42.1306 2.35751V2.2423H40.5282V2.35751C40.7759 2.35751 40.8921 2.42359 40.8921 2.572C40.8921 2.65534 40.7928 2.77188 40.6607 2.92162L39.3558 4.3241V3.0883C39.3558 2.67194 39.3558 2.37378 39.8512 2.35751V2.2423H38.1496V2.35751C38.5796 2.37378 38.6456 2.70548 38.6456 3.12151V5.64025C38.6456 6.08517 38.5796 6.26347 38.1496 6.26347V6.37636H39.8343V6.26347C39.3718 6.26347 39.3558 6.0689 39.3558 5.55725V4.40678L40.6607 5.80494C40.743 5.88728 40.7928 5.98589 40.7928 6.0689C40.7928 6.23093 40.6766 6.26347 40.4784 6.26347V6.37636H42.279ZM32.6399 6.37636V6.26347C32.4746 6.26347 32.3099 6.19939 32.1276 5.78801L30.592 2.24197H30.2945L28.9405 5.65619C28.7582 6.10177 28.5437 6.26313 28.2798 6.26313V6.37603H29.5182V6.26313C29.2207 6.26313 29.1713 6.16652 29.1713 6.06857C29.1713 6.01943 29.2045 5.87002 29.2204 5.83781L29.5342 5.0622H30.9881L31.3351 5.93708C31.3842 6.05263 31.3188 6.26313 30.9383 6.26313V6.37603L32.6399 6.37636ZM27.7841 5.22788C27.7841 4.58342 27.293 4.30684 26.7179 4.23944V4.20524C27.2113 4.13751 27.6038 3.82075 27.6038 3.28785C27.6038 2.5886 27.0805 2.2257 26.3696 2.2257C26.1382 2.2257 25.7567 2.24197 25.4921 2.24197H24.3034V2.35718C24.749 2.35718 24.8151 2.5886 24.8151 2.90469V5.68939C24.8151 6.13431 24.6995 6.26347 24.3526 6.26347V6.37636H26.4686C27.1788 6.37636 27.7841 5.93742 27.7841 5.22788ZM26.867 3.28818C26.867 3.82108 26.4526 4.1209 25.8566 4.1209C25.7404 4.1209 25.6408 4.10397 25.5253 4.08737V2.5554C25.6076 2.5222 25.7076 2.5056 25.8566 2.5056C26.4194 2.50526 26.867 2.72208 26.867 3.28818ZM26.9663 5.24415C26.9663 5.82187 26.5519 6.11904 26.0552 6.11904C25.8238 6.11904 25.6578 6.08517 25.5253 6.00283V4.39084C25.6246 4.3749 25.7567 4.3749 25.8566 4.3749C26.3696 4.3749 26.9663 4.56781 26.9663 5.24415Z" fill="white"/>
</svg>
