<?xml version="1.0" encoding="UTF-8"?><svg xmlns="http://www.w3.org/2000/svg" xmlns:xlink="http://www.w3.org/1999/xlink" version="1.1" width="58" height="20" viewBox="0 0 24 6"><path fill="#fff" d="m 21.049758,0.05000006 c -1.629279,-3.2427e-4 -2.950242,1.32037624 -2.950242,2.94965514 -3.24e-4,1.6296028 1.320639,2.950829 2.950242,2.950829 1.629602,0 2.950566,-1.3212262 2.950242,-2.950829 0,-1.6292789 -1.320964,-2.94997941 -2.950242,-2.94965514 m 0,5.09203014 C 19.88129,5.1227652 18.94511,4.1682768 18.948481,2.9996552 c -0.0028,-1.168165 0.933267,-2.12194316 2.101277,-2.14120072 1.167778,0.019574 2.103422,0.97326052 2.10069,2.14120072 0.0034,1.1683968 -0.932452,2.1227944 -2.10069,2.142375 M 14.623221,0.21321744 h 0.867753 V 5.7866802 H 14.623221 Z M 3.0958462,2.707273 1.8846323,2.4495304 C 1.6585971,2.4183862 1.4444334,2.329404 1.2628798,2.1912006 1.125421,2.0649546 1.0528319,1.8830497 1.0656098,1.6968517 1.0594505,1.4329942 1.1860077,1.1836281 1.4026127,1.032827 1.6701693,0.84933528 1.9903194,0.75821728 2.314399,0.77332312 2.6577098,0.76175112 2.9957216,0.86029472 3.2790254,1.0545502 3.4664514,1.192706 3.6061974,1.3858053 3.6788492,1.6070234 H 4.5906356 C 4.4898522,1.1488472 4.2165308,0.74706458 3.8273888,0.4850507 3.3841278,0.19132854 2.8605562,0.04258658 2.3290768,0.05939386 1.7751151,0.0339911 1.2283639,0.19297842 0.77440188,0.51147076 0.3898823,0.78951578 0.16594158,1.2382745 0.17495964,1.7127037 c 0,0.7767503 0.56069278,1.2916483 1.53353886,1.4942023 l 1.2487891,0.2577426 c 0.2500294,0.037474 0.4877468,0.133204 0.6939674,0.2794656 0.13921,0.133094 0.2112106,0.321721 0.196096,0.5137238 0.0063,0.2741324 -0.126192,0.5329246 -0.3522676,0.6880962 -0.293581,0.194654 -0.642307,0.2889936 -0.9939826,0.268898 C 2.1101612,5.2287182 1.7242857,5.1230322 1.3949802,4.9118818 1.1770794,4.7602686 1.0174021,4.5388742 0.94231618,4.2842582 H 0 c 0.07725716,0.4940028 0.36347874,0.930822 0.78555704,1.1988846 0.49360266,0.313549 1.06998506,0.471655 1.65448396,0.453838 0.577923,0.02757 1.1490788,-0.134028 1.6268898,-0.4602966 0.4022694,-0.28815 0.635411,-0.7570728 0.6223398,-1.2517244 0,-0.7931896 -0.5812418,-1.3121974 -1.5987084,-1.5176868 M 10.269778,0.21380456 H 8.5313374 L 6.2686042,5.7872672 H 7.2079848 L 9.3985028,0.33651114 11.588434,5.7872672 h 0.93938 z" /></svg>
