<svg width="132" height="48" viewBox="0 0 132 48" fill="none" xmlns="http://www.w3.org/2000/svg">
<path d="M0.375 23.625C0.375 10.5773 10.9523 0 24 0H107.415C120.993 0 132 11.0072 132 24.5854V47.25H24C10.9523 47.25 0.375 36.6727 0.375 23.625Z" fill="url(#paint0_linear_102_10217)"/>
<g filter="url(#filter0_dd_102_10217)">
<path d="M110.817 32.6743C106.771 32.6743 103.989 29.7522 103.989 25.4814C103.989 21.1824 106.715 18.2041 110.705 18.2041C114.61 18.2041 117.167 20.9015 117.167 24.9756V25.959L106.546 25.9871C106.743 28.8812 108.26 30.4827 110.873 30.4827C112.924 30.4827 114.273 29.6398 114.723 28.0663H117.195C116.521 31.0166 114.217 32.6743 110.817 32.6743ZM110.705 20.4238C108.401 20.4238 106.94 21.8006 106.602 24.217H114.526C114.526 21.9411 113.037 20.4238 110.705 20.4238Z" fill="url(#paint1_linear_102_10217)"/>
<path d="M117.168 26.1785L117.387 26.178V25.959V24.9756C117.387 22.8924 116.732 21.1419 115.559 19.9107C114.386 18.6783 112.71 17.9846 110.705 17.9846C108.652 17.9846 106.913 18.752 105.689 20.082C104.466 21.4104 103.77 23.2855 103.77 25.4814C103.77 27.6649 104.481 29.5199 105.727 30.8306C106.973 32.1422 108.739 32.8939 110.817 32.8939C112.552 32.8939 114.026 32.4707 115.157 31.6547C116.289 30.8372 117.061 29.637 117.409 28.1153L117.47 27.8468H117.195H114.723H114.557L114.511 28.006C114.301 28.7433 113.883 29.3014 113.282 29.6786C112.676 30.0582 111.87 30.2632 110.873 30.2632C109.613 30.2632 108.643 29.8787 107.962 29.1683C107.316 28.4945 106.909 27.5044 106.784 26.206L117.168 26.1785ZM114.301 23.9975H106.859C107.047 22.9476 107.463 22.1351 108.065 21.575C108.713 20.9729 109.598 20.6433 110.705 20.6433C111.822 20.6433 112.718 21.0058 113.335 21.6221C113.909 22.1966 114.257 23.0081 114.301 23.9975Z" stroke="#EDECEC" stroke-width="0.439024"/>
</g>
<g filter="url(#filter1_dd_102_10217)">
<path d="M83.3023 32.3372H80.6611V18.5975H83.0213L83.2742 20.3957C83.9766 19.1032 85.4377 18.2041 87.3765 18.2041C89.5119 18.2041 91.0291 19.2718 91.7316 20.9858C92.3778 19.2718 94.0356 18.2041 96.171 18.2041C99.3179 18.2041 101.229 20.1709 101.229 23.346V32.3372H98.6436V23.9922C98.6436 21.8287 97.4354 20.5924 95.5809 20.5924C93.586 20.5924 92.2654 21.9973 92.2654 24.1889V32.3372H89.6524V23.9641C89.6524 21.8006 88.4723 20.6205 86.6178 20.6205C84.6229 20.6205 83.3023 21.9973 83.3023 24.1889V32.3372Z" fill="url(#paint2_linear_102_10217)"/>
<path d="M83.3023 32.5567H83.5218V32.3372V24.1889C83.5218 23.137 83.8381 22.3025 84.3721 21.733C84.9048 21.1647 85.6728 20.84 86.6178 20.84C87.4973 20.84 88.1928 21.1185 88.6699 21.6306C89.1488 22.1446 89.4328 22.921 89.4328 23.9641V32.3372V32.5567H89.6524H92.2654H92.4849V32.3372V24.1889C92.4849 23.1369 92.8013 22.2949 93.3361 21.718C93.8694 21.1427 94.6373 20.8119 95.5809 20.8119C96.4576 20.8119 97.1607 21.1027 97.6462 21.6297C98.1336 22.1587 98.4241 22.9503 98.4241 23.9922V32.3372V32.5567H98.6436H101.229H101.448V32.3372V23.346C101.448 21.7144 100.956 20.369 100.037 19.4307C99.1163 18.4919 97.7909 17.9846 96.171 17.9846C94.1502 17.9846 92.5149 18.9121 91.7263 20.4554C90.9185 18.9194 89.407 17.9846 87.3765 17.9846C85.6272 17.9846 84.233 18.6932 83.4096 19.782L83.2387 18.5669L83.2121 18.378H83.0213H80.6611H80.4416V18.5975V32.3372V32.5567H80.6611H83.3023Z" stroke="#EDECEC" stroke-width="0.439024"/>
</g>
<g filter="url(#filter2_dd_102_10217)">
<path d="M75.4774 15.3381C74.5221 15.3381 73.7354 14.5514 73.7354 13.5961C73.7354 12.6126 74.5221 11.854 75.4774 11.854C76.4327 11.854 77.2194 12.6126 77.2194 13.5961C77.2194 14.5514 76.4327 15.3381 75.4774 15.3381ZM74.1849 32.3371V18.5974H76.8261V32.3371H74.1849Z" fill="url(#paint3_linear_102_10217)"/>
<path d="M73.9654 32.3371V32.5566H74.1849H76.8261H77.0456V32.3371V18.5974V18.3779H76.8261H74.1849H73.9654V18.5974V32.3371ZM73.5158 13.5961C73.5158 14.6726 74.4009 15.5576 75.4774 15.5576C76.554 15.5576 77.439 14.6726 77.439 13.5961C77.439 12.4891 76.5516 11.6345 75.4774 11.6345C74.4032 11.6345 73.5158 12.4891 73.5158 13.5961Z" stroke="#EDECEC" stroke-width="0.439024"/>
</g>
<g filter="url(#filter3_dd_102_10217)">
<path d="M69.1149 32.3375H66.4737V20.8175H63.7764V18.5978H66.4737V14.2988H69.1149V18.5978H71.8123V20.8175H69.1149V32.3375Z" fill="url(#paint4_linear_102_10217)"/>
<path d="M69.1149 32.557H69.3344V32.3375V21.037H71.8123H72.0318V20.8175V18.5978V18.3782H71.8123H69.3344V14.2988V14.0793H69.1149H66.4737H66.2542V14.2988V18.3782H63.7764H63.5569V18.5978V20.8175V21.037H63.7764H66.2542V32.3375V32.557H66.4737H69.1149Z" stroke="#EDECEC" stroke-width="0.439024"/>
</g>
<g filter="url(#filter4_dd_102_10217)">
<path d="M49.9248 38.4907V36.3272H51.695C52.9594 36.3272 53.9709 36.1305 54.6171 34.3885L55.0948 33.0679L49.5596 18.5977H52.3412L56.3311 29.6681L60.4052 18.5977H63.1307L56.6402 35.4281C55.7129 37.7883 54.3362 38.7717 52.2288 38.7717C51.3578 38.7717 50.6273 38.6593 49.9248 38.4907Z" fill="url(#paint5_linear_102_10217)"/>
<path d="M49.7053 38.4907V38.6638L49.8736 38.7042C50.5895 38.876 51.3374 38.9912 52.2288 38.9912C53.3183 38.9912 54.2387 38.7362 55.0085 38.1608C55.7754 37.5875 56.3717 36.7117 56.8445 35.5084L56.845 35.5071L63.3355 18.6766L63.4506 18.3781H63.1307H60.4052H60.2521L60.1992 18.5218L56.3332 29.0267L52.5477 18.5232L52.4954 18.3781H52.3412H49.5596H49.2406L49.3545 18.6761L54.8606 33.07L54.4113 34.3121C54.4112 34.3124 54.4111 34.3127 54.411 34.313C54.1004 35.1499 53.7147 35.5839 53.2831 35.8182C52.843 36.0572 52.322 36.1077 51.695 36.1077H49.9248H49.7053V36.3272V38.4907Z" stroke="#EDECEC" stroke-width="0.439024"/>
</g>
<g filter="url(#filter5_dd_102_10217)">
<path d="M37.9986 32.3372H35.3574V18.5975H37.7457L38.0267 20.7048C38.8977 19.1313 40.6398 18.2041 42.5785 18.2041C46.2031 18.2041 47.8608 20.4238 47.8608 23.936V32.3372H45.2197V24.5261C45.2197 21.7444 43.9272 20.6205 41.9042 20.6205C39.4316 20.6205 37.9986 22.3906 37.9986 25.0599V32.3372Z" fill="url(#paint6_linear_102_10217)"/>
<path d="M37.9986 32.5567H38.2181V32.3372V25.0599C38.2181 23.7626 38.5663 22.7085 39.1906 21.9823C39.8114 21.2602 40.724 20.84 41.9042 20.84C42.8757 20.84 43.6369 21.1089 44.1587 21.6784C44.6837 22.2515 45.0002 23.1653 45.0002 24.5261V32.3372V32.5567H45.2197H47.8608H48.0803V32.3372V23.936C48.0803 22.1491 47.6589 20.6566 46.7443 19.6086C45.8251 18.5555 44.4372 17.9846 42.5785 17.9846C40.7905 17.9846 39.1491 18.7474 38.1652 20.083L37.9633 18.5685L37.9379 18.378H37.7457H35.3574H35.1379V18.5975V32.3372V32.5567H35.3574H37.9986Z" stroke="#EDECEC" stroke-width="0.439024"/>
</g>
<g filter="url(#filter6_dd_102_10217)">
<path d="M18.0466 32.337H15.1807L22.5984 12.0225H25.6611L33.1069 32.337H30.2129L28.3865 27.2794H19.8449L18.0466 32.337ZM23.7785 16.4057L20.6878 24.8911H27.5717L24.4529 16.4057C24.3124 16.0123 24.1719 15.5347 24.1157 15.2256C24.0595 15.5066 23.919 15.9842 23.7785 16.4057Z" fill="url(#paint7_linear_102_10217)"/>
<path d="M18.0466 32.5565H18.2015L18.2534 32.4105L19.9998 27.499H28.2324L30.0064 32.4116L30.0587 32.5565H30.2129H33.1069H33.4212L33.313 32.2615L25.8672 11.9469L25.8144 11.8029H25.6611H22.5984H22.4449L22.3922 11.9472L14.9745 32.2617L14.8668 32.5565H15.1807H18.0466ZM23.9848 16.4808L23.9849 16.4808L23.9868 16.4751C24.0293 16.3474 24.0722 16.2137 24.1129 16.0812C24.1557 16.2178 24.201 16.3532 24.2461 16.4795L24.2461 16.4795L24.2468 16.4814L27.2571 24.6716H21.0014L23.9848 16.4808Z" stroke="#EDECEC" stroke-width="0.439024"/>
</g>
<defs>
<filter id="filter0_dd_102_10217" x="97.6098" y="10.2051" width="22.8363" height="27.2281" filterUnits="userSpaceOnUse" color-interpolation-filters="sRGB">
<feFlood flood-opacity="0" result="BackgroundImageFix"/>
<feColorMatrix in="SourceAlpha" type="matrix" values="0 0 0 0 0 0 0 0 0 0 0 0 0 0 0 0 0 0 127 0" result="hardAlpha"/>
<feOffset dx="-1.62" dy="-3.24"/>
<feGaussianBlur stdDeviation="2.16"/>
<feComposite in2="hardAlpha" operator="out"/>
<feColorMatrix type="matrix" values="0 0 0 0 1 0 0 0 0 1 0 0 0 0 1 0 0 0 0.12 0"/>
<feBlend mode="normal" in2="BackgroundImageFix" result="effect1_dropShadow_102_10217"/>
<feColorMatrix in="SourceAlpha" type="matrix" values="0 0 0 0 0 0 0 0 0 0 0 0 0 0 0 0 0 0 127 0" result="hardAlpha"/>
<feOffset dy="2.16"/>
<feGaussianBlur stdDeviation="1.08"/>
<feComposite in2="hardAlpha" operator="out"/>
<feColorMatrix type="matrix" values="0 0 0 0 0 0 0 0 0 0 0 0 0 0 0 0 0 0 0.2 0"/>
<feBlend mode="normal" in2="effect1_dropShadow_102_10217" result="effect2_dropShadow_102_10217"/>
<feBlend mode="normal" in="SourceGraphic" in2="effect2_dropShadow_102_10217" result="shape"/>
</filter>
<filter id="filter1_dd_102_10217" x="74.2817" y="10.2051" width="30.0863" height="26.8912" filterUnits="userSpaceOnUse" color-interpolation-filters="sRGB">
<feFlood flood-opacity="0" result="BackgroundImageFix"/>
<feColorMatrix in="SourceAlpha" type="matrix" values="0 0 0 0 0 0 0 0 0 0 0 0 0 0 0 0 0 0 127 0" result="hardAlpha"/>
<feOffset dx="-1.62" dy="-3.24"/>
<feGaussianBlur stdDeviation="2.16"/>
<feComposite in2="hardAlpha" operator="out"/>
<feColorMatrix type="matrix" values="0 0 0 0 1 0 0 0 0 1 0 0 0 0 1 0 0 0 0.12 0"/>
<feBlend mode="normal" in2="BackgroundImageFix" result="effect1_dropShadow_102_10217"/>
<feColorMatrix in="SourceAlpha" type="matrix" values="0 0 0 0 0 0 0 0 0 0 0 0 0 0 0 0 0 0 127 0" result="hardAlpha"/>
<feOffset dy="2.16"/>
<feGaussianBlur stdDeviation="1.08"/>
<feComposite in2="hardAlpha" operator="out"/>
<feColorMatrix type="matrix" values="0 0 0 0 0 0 0 0 0 0 0 0 0 0 0 0 0 0 0.2 0"/>
<feBlend mode="normal" in2="effect1_dropShadow_102_10217" result="effect2_dropShadow_102_10217"/>
<feBlend mode="normal" in="SourceGraphic" in2="effect2_dropShadow_102_10217" result="shape"/>
</filter>
<filter id="filter2_dd_102_10217" x="67.3559" y="3.85504" width="13.0023" height="33.2413" filterUnits="userSpaceOnUse" color-interpolation-filters="sRGB">
<feFlood flood-opacity="0" result="BackgroundImageFix"/>
<feColorMatrix in="SourceAlpha" type="matrix" values="0 0 0 0 0 0 0 0 0 0 0 0 0 0 0 0 0 0 127 0" result="hardAlpha"/>
<feOffset dx="-1.62" dy="-3.24"/>
<feGaussianBlur stdDeviation="2.16"/>
<feComposite in2="hardAlpha" operator="out"/>
<feColorMatrix type="matrix" values="0 0 0 0 1 0 0 0 0 1 0 0 0 0 1 0 0 0 0.12 0"/>
<feBlend mode="normal" in2="BackgroundImageFix" result="effect1_dropShadow_102_10217"/>
<feColorMatrix in="SourceAlpha" type="matrix" values="0 0 0 0 0 0 0 0 0 0 0 0 0 0 0 0 0 0 127 0" result="hardAlpha"/>
<feOffset dy="2.16"/>
<feGaussianBlur stdDeviation="1.08"/>
<feComposite in2="hardAlpha" operator="out"/>
<feColorMatrix type="matrix" values="0 0 0 0 0 0 0 0 0 0 0 0 0 0 0 0 0 0 0.2 0"/>
<feBlend mode="normal" in2="effect1_dropShadow_102_10217" result="effect2_dropShadow_102_10217"/>
<feBlend mode="normal" in="SourceGraphic" in2="effect2_dropShadow_102_10217" result="shape"/>
</filter>
<filter id="filter3_dd_102_10217" x="57.3969" y="6.29986" width="17.5541" height="30.7965" filterUnits="userSpaceOnUse" color-interpolation-filters="sRGB">
<feFlood flood-opacity="0" result="BackgroundImageFix"/>
<feColorMatrix in="SourceAlpha" type="matrix" values="0 0 0 0 0 0 0 0 0 0 0 0 0 0 0 0 0 0 127 0" result="hardAlpha"/>
<feOffset dx="-1.62" dy="-3.24"/>
<feGaussianBlur stdDeviation="2.16"/>
<feComposite in2="hardAlpha" operator="out"/>
<feColorMatrix type="matrix" values="0 0 0 0 1 0 0 0 0 1 0 0 0 0 1 0 0 0 0.12 0"/>
<feBlend mode="normal" in2="BackgroundImageFix" result="effect1_dropShadow_102_10217"/>
<feColorMatrix in="SourceAlpha" type="matrix" values="0 0 0 0 0 0 0 0 0 0 0 0 0 0 0 0 0 0 127 0" result="hardAlpha"/>
<feOffset dy="2.16"/>
<feGaussianBlur stdDeviation="1.08"/>
<feComposite in2="hardAlpha" operator="out"/>
<feColorMatrix type="matrix" values="0 0 0 0 0 0 0 0 0 0 0 0 0 0 0 0 0 0 0.2 0"/>
<feBlend mode="normal" in2="effect1_dropShadow_102_10217" result="effect2_dropShadow_102_10217"/>
<feBlend mode="normal" in="SourceGraphic" in2="effect2_dropShadow_102_10217" result="shape"/>
</filter>
<filter id="filter4_dd_102_10217" x="42.9819" y="10.5987" width="23.4886" height="32.9322" filterUnits="userSpaceOnUse" color-interpolation-filters="sRGB">
<feFlood flood-opacity="0" result="BackgroundImageFix"/>
<feColorMatrix in="SourceAlpha" type="matrix" values="0 0 0 0 0 0 0 0 0 0 0 0 0 0 0 0 0 0 127 0" result="hardAlpha"/>
<feOffset dx="-1.62" dy="-3.24"/>
<feGaussianBlur stdDeviation="2.16"/>
<feComposite in2="hardAlpha" operator="out"/>
<feColorMatrix type="matrix" values="0 0 0 0 1 0 0 0 0 1 0 0 0 0 1 0 0 0 0.12 0"/>
<feBlend mode="normal" in2="BackgroundImageFix" result="effect1_dropShadow_102_10217"/>
<feColorMatrix in="SourceAlpha" type="matrix" values="0 0 0 0 0 0 0 0 0 0 0 0 0 0 0 0 0 0 127 0" result="hardAlpha"/>
<feOffset dy="2.16"/>
<feGaussianBlur stdDeviation="1.08"/>
<feComposite in2="hardAlpha" operator="out"/>
<feColorMatrix type="matrix" values="0 0 0 0 0 0 0 0 0 0 0 0 0 0 0 0 0 0 0.2 0"/>
<feBlend mode="normal" in2="effect1_dropShadow_102_10217" result="effect2_dropShadow_102_10217"/>
<feBlend mode="normal" in="SourceGraphic" in2="effect2_dropShadow_102_10217" result="shape"/>
</filter>
<filter id="filter5_dd_102_10217" x="28.978" y="10.2051" width="22.0218" height="26.8912" filterUnits="userSpaceOnUse" color-interpolation-filters="sRGB">
<feFlood flood-opacity="0" result="BackgroundImageFix"/>
<feColorMatrix in="SourceAlpha" type="matrix" values="0 0 0 0 0 0 0 0 0 0 0 0 0 0 0 0 0 0 127 0" result="hardAlpha"/>
<feOffset dx="-1.62" dy="-3.24"/>
<feGaussianBlur stdDeviation="2.16"/>
<feComposite in2="hardAlpha" operator="out"/>
<feColorMatrix type="matrix" values="0 0 0 0 1 0 0 0 0 1 0 0 0 0 1 0 0 0 0.12 0"/>
<feBlend mode="normal" in2="BackgroundImageFix" result="effect1_dropShadow_102_10217"/>
<feColorMatrix in="SourceAlpha" type="matrix" values="0 0 0 0 0 0 0 0 0 0 0 0 0 0 0 0 0 0 127 0" result="hardAlpha"/>
<feOffset dy="2.16"/>
<feGaussianBlur stdDeviation="1.08"/>
<feComposite in2="hardAlpha" operator="out"/>
<feColorMatrix type="matrix" values="0 0 0 0 0 0 0 0 0 0 0 0 0 0 0 0 0 0 0.2 0"/>
<feBlend mode="normal" in2="effect1_dropShadow_102_10217" result="effect2_dropShadow_102_10217"/>
<feBlend mode="normal" in="SourceGraphic" in2="effect2_dropShadow_102_10217" result="shape"/>
</filter>
<filter id="filter6_dd_102_10217" x="8.61273" y="4.0235" width="27.8226" height="33.0724" filterUnits="userSpaceOnUse" color-interpolation-filters="sRGB">
<feFlood flood-opacity="0" result="BackgroundImageFix"/>
<feColorMatrix in="SourceAlpha" type="matrix" values="0 0 0 0 0 0 0 0 0 0 0 0 0 0 0 0 0 0 127 0" result="hardAlpha"/>
<feOffset dx="-1.62" dy="-3.24"/>
<feGaussianBlur stdDeviation="2.16"/>
<feComposite in2="hardAlpha" operator="out"/>
<feColorMatrix type="matrix" values="0 0 0 0 1 0 0 0 0 1 0 0 0 0 1 0 0 0 0.12 0"/>
<feBlend mode="normal" in2="BackgroundImageFix" result="effect1_dropShadow_102_10217"/>
<feColorMatrix in="SourceAlpha" type="matrix" values="0 0 0 0 0 0 0 0 0 0 0 0 0 0 0 0 0 0 127 0" result="hardAlpha"/>
<feOffset dy="2.16"/>
<feGaussianBlur stdDeviation="1.08"/>
<feComposite in2="hardAlpha" operator="out"/>
<feColorMatrix type="matrix" values="0 0 0 0 0 0 0 0 0 0 0 0 0 0 0 0 0 0 0.2 0"/>
<feBlend mode="normal" in2="effect1_dropShadow_102_10217" result="effect2_dropShadow_102_10217"/>
<feBlend mode="normal" in="SourceGraphic" in2="effect2_dropShadow_102_10217" result="shape"/>
</filter>
<linearGradient id="paint0_linear_102_10217" x1="66.1875" y1="47.25" x2="64.6133" y2="0.0525054" gradientUnits="userSpaceOnUse">
<stop stop-color="#5626EB"/>
<stop offset="1" stop-color="#7C54F7"/>
</linearGradient>
<linearGradient id="paint1_linear_102_10217" x1="-31.0334" y1="0.481901" x2="-26.292" y2="46.755" gradientUnits="userSpaceOnUse">
<stop stop-color="#FEFEFE"/>
<stop offset="1" stop-color="#CAC9CD"/>
</linearGradient>
<linearGradient id="paint2_linear_102_10217" x1="-31.032" y1="0.481901" x2="-26.2906" y2="46.755" gradientUnits="userSpaceOnUse">
<stop stop-color="#FEFEFE"/>
<stop offset="1" stop-color="#CAC9CD"/>
</linearGradient>
<linearGradient id="paint3_linear_102_10217" x1="-31.0326" y1="0.481853" x2="-26.2912" y2="46.755" gradientUnits="userSpaceOnUse">
<stop stop-color="#FEFEFE"/>
<stop offset="1" stop-color="#CAC9CD"/>
</linearGradient>
<linearGradient id="paint4_linear_102_10217" x1="-31.035" y1="0.482188" x2="-26.2935" y2="46.7553" gradientUnits="userSpaceOnUse">
<stop stop-color="#FEFEFE"/>
<stop offset="1" stop-color="#CAC9CD"/>
</linearGradient>
<linearGradient id="paint5_linear_102_10217" x1="-31.0331" y1="0.482086" x2="-26.2916" y2="46.7552" gradientUnits="userSpaceOnUse">
<stop stop-color="#FEFEFE"/>
<stop offset="1" stop-color="#CAC9CD"/>
</linearGradient>
<linearGradient id="paint6_linear_102_10217" x1="-31.0339" y1="0.481901" x2="-26.2924" y2="46.755" gradientUnits="userSpaceOnUse">
<stop stop-color="#FEFEFE"/>
<stop offset="1" stop-color="#CAC9CD"/>
</linearGradient>
<linearGradient id="paint7_linear_102_10217" x1="-31.0335" y1="0.481723" x2="-26.2921" y2="46.7548" gradientUnits="userSpaceOnUse">
<stop stop-color="#FEFEFE"/>
<stop offset="1" stop-color="#CAC9CD"/>
</linearGradient>
</defs>
</svg>
