<svg width="45" height="50" viewBox="0 0 45 50" fill="none" xmlns="http://www.w3.org/2000/svg">
<g clip-path="url(#clip0_97_4443)">
<path d="M44.2425 14.8013C44.2422 13.9689 44.0641 13.2333 43.7041 12.6022C43.3504 11.9812 42.8208 11.4609 42.1104 11.0495C36.2462 7.66814 30.3763 4.29715 24.514 0.912379C22.9336 -4.00841e-05 21.4012 0.0333958 19.8325 0.958913C17.4984 2.3353 5.81219 9.03056 2.32986 11.0476C0.895741 11.8779 0.197898 13.1485 0.197553 14.7998C0.195312 21.5998 0.197553 28.3999 0.195312 35.2C0.195312 36.0141 0.366111 36.7356 0.710293 37.3573C1.06413 37.9968 1.60117 38.5315 2.32797 38.9522C5.81046 40.9692 17.4982 47.6639 19.8318 49.0408C21.4012 49.9669 22.9336 50 24.5145 49.0874C30.377 45.7024 36.2472 42.3314 42.1123 38.9501C42.8391 38.5296 43.3761 37.9946 43.73 37.3555C44.0736 36.7337 44.2448 36.0124 44.2448 35.1981C44.2448 35.1981 44.2448 21.6016 44.2425 14.8013Z" fill="#A179DC"/>
<path d="M22.2871 24.9336L0.709961 37.3572C1.06379 37.9968 1.60084 38.5315 2.32763 38.9522C5.81013 40.9692 17.4978 47.6639 19.8315 49.0408C21.4009 49.9669 22.9332 50 24.5142 49.0874C30.3767 45.7024 36.2469 42.3314 42.112 38.9501C42.8388 38.5296 43.3758 37.9946 43.7296 37.3555L22.2871 24.9336Z" fill="#280068"/>
<path d="M44.2422 14.8015C44.2419 13.969 44.0638 13.2334 43.7038 12.6023L22.2871 24.9339L43.7296 37.3557C44.0733 36.7338 44.2441 36.0125 44.2444 35.1982C44.2444 35.1982 44.2444 21.6017 44.2422 14.8015Z" fill="#390091"/>
<path d="M34.991 20.2896V22.6118H37.3132V20.2896H38.4744V22.6118H40.7966V23.7729H38.4744V26.095H40.7966V27.2561H38.4744V29.5783H37.3132V27.2561H34.991V29.5783H33.8299V27.2561H31.5078V26.095H33.8299V23.7729H31.5078V22.6118H33.8299V20.2896H34.991ZM37.3132 23.7727H34.991V26.095H37.3132V23.7727Z" fill="white"/>
<path d="M22.3343 8.62688C28.3914 8.62688 33.6796 11.9163 36.5121 16.8059L36.4846 16.7589L29.3579 20.8622C27.954 18.4849 25.3801 16.8805 22.4272 16.8474L22.3341 16.8469C17.8315 16.8469 14.1812 20.4973 14.1812 24.9999C14.1797 26.4191 14.5504 27.8139 15.2564 29.045C16.6618 31.4984 19.3037 33.1531 22.3343 33.1531C25.3837 33.1531 28.0406 31.4773 29.4387 28.9977L29.4048 29.0572L36.5206 33.1795C33.719 38.0277 28.5032 41.3069 22.5167 41.3723L22.3343 41.3733C16.2581 41.3733 10.9549 38.0635 8.12944 33.1481C6.75013 30.7485 5.96094 27.9666 5.96094 24.9999C5.96094 15.9574 13.2913 8.62671 22.3341 8.62671L22.3343 8.62688Z" fill="white"/>
</g>
<defs>
<clipPath id="clip0_97_4443">
<rect width="44.44" height="50" fill="white"/>
</clipPath>
</defs>
</svg>
