<svg width="32" height="32" viewBox="0 0 32 32" fill="none" xmlns="http://www.w3.org/2000/svg">
<g id="github-mark-white 1" clip-path="url(#clip0_102_10264)">
<path id="Vector" fill-rule="evenodd" clip-rule="evenodd" d="M15.9523 0C7.1311 0 0 7.1453 0 15.985C0 23.0511 4.56914 29.0323 10.9078 31.1493C11.7002 31.3084 11.9905 30.8053 11.9905 30.3821C11.9905 30.0116 11.9644 28.7413 11.9644 27.4178C7.52686 28.3707 6.60278 25.5123 6.60278 25.5123C5.88963 23.6597 4.83298 23.1836 4.83298 23.1836C3.38057 22.2043 4.93878 22.2043 4.93878 22.2043C6.54988 22.3102 7.39527 23.8452 7.39527 23.8452C8.82123 26.2798 11.119 25.5919 12.0434 25.1683C12.1753 24.1362 12.5982 23.4216 13.0472 23.0247C9.50792 22.6542 5.78416 21.2781 5.78416 15.138C5.78416 13.3913 6.41763 11.9622 7.42139 10.8508C7.26302 10.4539 6.70825 8.81275 7.58008 6.61622C7.58008 6.61622 8.92702 6.1927 11.9641 8.25704C13.2644 7.90714 14.6053 7.72914 15.9523 7.72764C17.2993 7.72764 18.6723 7.91309 19.9402 8.25704C22.9776 6.1927 24.3246 6.61622 24.3246 6.61622C25.1964 8.81275 24.6413 10.4539 24.4829 10.8508C25.5131 11.9622 26.1205 13.3913 26.1205 15.138C26.1205 21.2781 22.3967 22.6275 18.831 23.0247C19.4122 23.5275 19.9138 24.4801 19.9138 25.9888C19.9138 28.1323 19.8877 29.8527 19.8877 30.3818C19.8877 30.8053 20.1783 31.3084 20.9705 31.1496C27.3091 29.032 31.8782 23.0511 31.8782 15.985C31.9043 7.1453 24.7471 0 15.9523 0Z" fill="#E6E6E6"/>
</g>
<defs>
<clipPath id="clip0_102_10264">
<rect width="32" height="31.1795" fill="white"/>
</clipPath>
</defs>
</svg>
