<svg width="40" height="46" viewBox="0 0 40 46" fill="none" xmlns="http://www.w3.org/2000/svg">
<path d="M40 22.7934C40 20.1436 36.6816 17.6324 31.594 16.0751C32.768 10.8896 32.2462 6.76408 29.947 5.44325C29.417 5.13343 28.7974 4.98667 28.1207 4.98667V6.80485C28.4957 6.80485 28.7974 6.87823 29.0501 7.01684C30.159 7.65279 30.64 10.0743 30.265 13.1889C30.1753 13.9553 30.0285 14.7625 29.8492 15.5859C28.2511 15.1946 26.5063 14.8929 24.6718 14.6972C23.5711 13.1889 22.4297 11.8191 21.2801 10.6206C23.938 8.15014 26.4329 6.7967 28.1288 6.7967V4.97852C25.8867 4.97852 22.9515 6.57656 19.9837 9.34867C17.0159 6.59287 14.0807 5.01113 11.8386 5.01113V6.82931C13.5263 6.82931 16.0294 8.1746 18.6873 10.6287C17.5459 11.8273 16.4044 13.1889 15.32 14.6972C13.4774 14.8929 11.7326 15.1946 10.1345 15.5941C9.947 14.7788 9.8084 13.9879 9.71056 13.2296C9.32735 10.1151 9.80025 7.69356 10.9009 7.04945C11.1455 6.90269 11.4635 6.83746 11.8386 6.83746V5.01928C11.1537 5.01928 10.534 5.16604 9.99592 5.47587C7.70485 6.7967 7.19119 10.9141 8.37342 16.0833C3.30208 17.6487 0 20.1518 0 22.7934C0 25.4433 3.31838 27.9545 8.40603 29.5117C7.23196 34.6972 7.75377 38.8228 10.053 40.1436C10.583 40.4534 11.2026 40.6002 11.8875 40.6002C14.1296 40.6002 17.0648 39.0022 20.0326 36.23C23.0004 38.9859 25.9356 40.5676 28.1777 40.5676C28.8626 40.5676 29.4823 40.4208 30.0204 40.111C32.3115 38.7902 32.8251 34.6728 31.6429 29.5036C36.6979 27.9463 40 25.4351 40 22.7934ZM29.3844 17.3552C29.0828 18.407 28.7077 19.4914 28.2837 20.5757C27.9494 19.9235 27.5989 19.2712 27.2157 18.619C26.8406 17.9667 26.4411 17.3307 26.0416 16.7111C27.1994 16.8823 28.3163 17.0943 29.3844 17.3552ZM25.6502 26.0384C25.0143 27.1391 24.362 28.1828 23.6853 29.153C22.4704 29.259 21.2393 29.3161 20 29.3161C18.7689 29.3161 17.5377 29.259 16.331 29.1611C15.6543 28.1909 14.9939 27.1554 14.3579 26.0629C13.7383 24.9948 13.1757 23.9104 12.662 22.8179C13.1676 21.7254 13.7383 20.6328 14.3498 19.5647C14.9857 18.464 15.638 17.4204 16.3147 16.4502C17.5296 16.3442 18.7607 16.2871 20 16.2871C21.2311 16.2871 22.4623 16.3442 23.669 16.442C24.3457 17.4123 25.0061 18.4477 25.6421 19.5403C26.2617 20.6084 26.8243 21.6927 27.338 22.7853C26.8243 23.8778 26.2617 24.9704 25.6502 26.0384ZM28.2837 24.9785C28.724 26.0711 29.0991 27.1636 29.4089 28.2235C28.3408 28.4844 27.2157 28.7046 26.0497 28.8758C26.4492 28.248 26.8488 27.6039 27.2238 26.9435C27.5989 26.2912 27.9494 25.6308 28.2837 24.9785ZM20.0163 33.6781C19.2581 32.8954 18.4998 32.0229 17.7497 31.069C18.4835 31.1016 19.2336 31.1261 19.9918 31.1261C20.7583 31.1261 21.5165 31.1098 22.2585 31.069C21.5247 32.0229 20.7664 32.8954 20.0163 33.6781ZM13.9503 28.8758C12.7925 28.7046 11.6755 28.4926 10.6074 28.2317C10.9091 27.1799 11.2841 26.0955 11.7081 25.0111C12.0424 25.6634 12.393 26.3157 12.7762 26.9679C13.1594 27.6202 13.5508 28.2561 13.9503 28.8758ZM19.9755 11.9088C20.7338 12.6915 21.4921 13.5639 22.2422 14.5179C21.5084 14.4852 20.7583 14.4608 20 14.4608C19.2336 14.4608 18.4753 14.4771 17.7334 14.5179C18.4672 13.5639 19.2254 12.6915 19.9755 11.9088ZM13.9421 16.7111C13.5426 17.3389 13.1431 17.983 12.768 18.6434C12.393 19.2957 12.0424 19.9479 11.7081 20.6002C11.2678 19.5077 10.8928 18.4151 10.583 17.3552C11.651 17.1024 12.7762 16.8823 13.9421 16.7111ZM6.56339 26.919C3.67713 25.6879 1.81003 24.0735 1.81003 22.7934C1.81003 21.5134 3.67713 19.8909 6.56339 18.6679C7.26458 18.3662 8.03098 18.0971 8.82185 17.8444C9.28659 19.4424 9.89808 21.1057 10.6563 22.8097C9.90624 24.5056 9.3029 26.1607 8.84631 27.7506C8.03914 27.4979 7.27273 27.2207 6.56339 26.919ZM10.9499 38.57C9.84101 37.9341 9.35997 35.5126 9.73502 32.398C9.82471 31.6316 9.97147 30.8244 10.1508 30.0009C11.7489 30.3923 13.4937 30.694 15.3282 30.8896C16.4289 32.398 17.5703 33.7678 18.7199 34.9663C16.062 37.4367 13.5671 38.7902 11.8712 38.7902C11.5043 38.782 11.1945 38.7086 10.9499 38.57ZM30.2894 32.3572C30.6726 35.4718 30.1998 37.8933 29.0991 38.5374C28.8545 38.6842 28.5365 38.7494 28.1614 38.7494C26.4737 38.7494 23.9707 37.4041 21.3127 34.95C22.4541 33.7514 23.5956 32.3898 24.68 30.8815C26.5226 30.6858 28.2674 30.3841 29.8655 29.9846C30.053 30.8081 30.1998 31.599 30.2894 32.3572ZM33.4285 26.919C32.7273 27.2207 31.9609 27.4897 31.17 27.7425C30.7053 26.1444 30.0938 24.4812 29.3355 22.7771C30.0856 21.0812 30.689 19.4261 31.1455 17.8362C31.9527 18.089 32.7191 18.3662 33.4366 18.6679C36.3229 19.899 38.19 21.5134 38.19 22.7934C38.1818 24.0735 36.3147 25.696 33.4285 26.919Z" fill="#61DAFB"/>
<path d="M19.9917 26.5195C22.0495 26.5195 23.7177 24.8513 23.7177 22.7934C23.7177 20.7356 22.0495 19.0674 19.9917 19.0674C17.9338 19.0674 16.2656 20.7356 16.2656 22.7934C16.2656 24.8513 17.9338 26.5195 19.9917 26.5195Z" fill="#61DAFB"/>
</svg>
