<svg width="50" height="30" viewBox="0 0 50 30" fill="none" xmlns="http://www.w3.org/2000/svg">
<g clip-path="url(#clip0_97_4461)">
<mask id="mask0_97_4461" style="mask-type:luminance" maskUnits="userSpaceOnUse" x="0" y="0" width="50" height="30">
<path d="M0.44043 0H49.5313V29.4545H0.44043V0Z" fill="white"/>
</mask>
<g mask="url(#mask0_97_4461)">
<path fill-rule="evenodd" clip-rule="evenodd" d="M24.9859 0C18.4404 0 14.3495 3.27273 12.7132 9.81818C15.1677 6.54545 18.0313 5.31818 21.3041 6.13636C23.1713 6.60273 24.5059 7.95818 25.9832 9.45727C28.3895 11.9 31.175 14.7273 37.2586 14.7273C43.8041 14.7273 47.895 11.4545 49.5313 4.90909C47.0768 8.18182 44.2132 9.40909 40.9404 8.59091C39.0732 8.12455 37.7386 6.76909 36.2613 5.27C33.855 2.82727 31.0695 0 24.9859 0ZM12.7132 14.7273C6.1677 14.7273 2.07679 18 0.44043 24.5455C2.89498 21.2727 5.75861 20.0455 9.03134 20.8636C10.8986 21.3309 12.2332 22.6855 13.7104 24.1845C16.1168 26.6273 18.9022 29.4545 24.9859 29.4545C31.5313 29.4545 35.6222 26.1818 37.2586 19.6364C34.8041 22.9091 31.9404 24.1364 28.6677 23.3182C26.8004 22.8518 25.4659 21.4964 23.9886 19.9973C21.5822 17.5545 18.7968 14.7273 12.7132 14.7273Z" fill="#38BDF8"/>
</g>
</g>
<defs>
<clipPath id="clip0_97_4461">
<rect width="49.0909" height="30" fill="white" transform="translate(0.44043)"/>
</clipPath>
</defs>
</svg>
