<svg width="40" height="40" viewBox="0 0 40 40" fill="none" xmlns="http://www.w3.org/2000/svg">
<g clip-path="url(#clip0_97_4454)">
<path d="M0 20V0H40V40H0" fill="#007ACC"/>
<path d="M8.76953 20.07V21.7H13.9695V36.5H17.6595V21.7H22.8595V20.1C22.8595 19.2 22.8595 18.47 22.8195 18.45C22.8195 18.42 19.6495 18.41 15.7995 18.41L8.79953 18.44V20.08L8.76953 20.07ZM32.1395 18.4C33.1595 18.64 33.9395 19.1 34.6395 19.83C35.0095 20.23 35.5595 20.93 35.5995 21.11C35.5995 21.17 33.8695 22.34 32.8195 22.99C32.7795 23.02 32.6195 22.85 32.4595 22.59C31.9395 21.85 31.4095 21.53 30.5795 21.47C29.3795 21.39 28.5795 22.02 28.5795 23.07C28.5795 23.39 28.6395 23.57 28.7595 23.83C29.0295 24.38 29.5295 24.71 31.0795 25.39C33.9395 26.62 35.1795 27.43 35.9295 28.59C36.7795 29.89 36.9695 31.93 36.3995 33.46C35.7595 35.13 34.1995 36.26 31.9695 36.63C31.2695 36.75 29.6695 36.73 28.9195 36.6C27.3195 36.3 25.7895 35.5 24.8495 34.47C24.4795 34.07 23.7695 33 23.8095 32.93L24.1895 32.69L25.6895 31.82L26.8195 31.16L27.0795 31.51C27.4095 32.03 28.1495 32.73 28.5795 32.97C29.8795 33.64 31.6195 33.55 32.4795 32.77C32.8495 32.43 33.0095 32.07 33.0095 31.57C33.0095 31.11 32.9395 30.9 32.7095 30.55C32.3895 30.11 31.7495 29.75 29.9495 28.95C27.8795 28.07 26.9995 27.51 26.1795 26.65C25.7095 26.13 25.2795 25.32 25.0795 24.65C24.9295 24.07 24.8795 22.65 25.0195 22.08C25.4495 20.08 26.9595 18.68 29.1195 18.28C29.8195 18.14 31.4695 18.2 32.1595 18.38L32.1395 18.4Z" fill="white"/>
</g>
<defs>
<clipPath id="clip0_97_4454">
<rect width="40" height="40" fill="white"/>
</clipPath>
</defs>
</svg>
